<svg xmlns="http://www.w3.org/2000/svg" viewBox="0 0 400 300" width="406" height="306" class="illustration styles_illustrationTablet__1DWOa"><g id="_201_basketball_outline" data-name="#201_basketball_outline"><path d="M262.28,163.19s-.13-18.09-1.62-23.11-25.72-17.46-25.72-17.46l-9.08,15s18.72,4.67,22,6.72,4.16,19.51,4.16,19.51-1.24,9.62.68,9.63,2.76-4.18,2.76-4.18,1.79,7.28,4.64,7.22,5-3.48,4.73-5.6S262.28,163.19,262.28,163.19Z" fill="#ffc9b0"></path><path d="M260.11,177.57c-2.21,0-3.75-2.76-4.65-5.08a3.28,3.28,0,0,1-2.71,2h0a1.55,1.55,0,0,1-1.19-.57c-1.39-1.58-.81-7.52-.48-10.1-.35-7-1.71-17.41-3.69-18.62-2.61-1.61-16.6-5.31-21.77-6.6a1,1,0,0,1-.61-1.49l9.08-15.05a1,1,0,0,1,1.32-.37c2.52,1.29,24.65,12.78,26.22,18.06,1.45,4.88,1.64,21.14,1.66,23.2.4,1,2.32,5.82,2.59,7.84a6.31,6.31,0,0,1-1.64,4.63,5.54,5.54,0,0,1-4.06,2.11Zm-4.6-9.22a1,1,0,0,1,1,.76c.67,2.72,2.3,6.46,3.63,6.46h0a3.66,3.66,0,0,0,2.58-1.41,4.41,4.41,0,0,0,1.18-3,50.65,50.65,0,0,0-2.54-7.54,1,1,0,0,1-.07-.37c0-.18-.14-18-1.58-22.84-1-3.26-15.12-11.61-24.39-16.42L227.41,137c4.37,1.11,18.1,4.7,21,6.51,3.59,2.21,4.5,17.31,4.64,20.31a1.09,1.09,0,0,1,0,.18c-.47,3.68-.51,7.42-.1,8.44.58-.33,1.29-1.93,1.57-3.32a1,1,0,0,1,1-.8Z" fill="#093f68"></path><path d="M200,200.86l-28.68,19.82-11.65,8.06c-1-1-5.48-7.61-7.55-9.64L163,210.52l26.85-21.32c3.12-2.33,9.32-1.35,11.66,1.78A7,7,0,0,1,200,200.86Z" fill="#ffc9b0"></path><path d="M159.71,229.74a1,1,0,0,1-.71-.3,42,42,0,0,1-2.6-3.37,71,71,0,0,0-4.94-6.26,1,1,0,0,1-.3-.77,1,1,0,0,1,.38-.73l37.66-29.89a9.22,9.22,0,0,1,6.9-1.37,9.48,9.48,0,0,1,6.18,3.33,8.05,8.05,0,0,1-1.64,11.28l0,0-40.33,27.88A1,1,0,0,1,159.71,229.74Zm-6.08-10.53c1.27,1.46,3,3.76,4.38,5.67.71,1,1.4,1.9,1.88,2.52l39.57-27.35a6.06,6.06,0,0,0,1.22-8.47,7.59,7.59,0,0,0-4.89-2.55,7.34,7.34,0,0,0-5.37,1ZM200,200.86h0Z" fill="#093f68"></path><path d="M171.36,220.68l-11.65,8.06c-1-1-5.48-7.61-7.55-9.64L163,210.52C165.72,213.85,168.85,217.63,171.36,220.68Z" fill="#fff"></path><path d="M159.71,229.74a1,1,0,0,1-.71-.3,42,42,0,0,1-2.6-3.37,71,71,0,0,0-4.94-6.26,1,1,0,0,1-.3-.77,1,1,0,0,1,.38-.73l10.81-8.57a1,1,0,0,1,1.39.14l.53.64c2.61,3.16,5.51,6.67,7.86,9.53a1,1,0,0,1,.22.77,1,1,0,0,1-.42.68l-11.65,8.06A1,1,0,0,1,159.71,229.74Zm-6.08-10.53c1.27,1.46,3,3.76,4.38,5.67.71,1,1.4,1.9,1.88,2.52l10-6.92-7.06-8.57Z" fill="#093f68"></path><path d="M152.16,219.1,145,224l15.1,19.76c.33.37,3.26-.08,3.24-.57L160.85,228Z" fill="#de2626"></path><path d="M160.87,244.91a1.92,1.92,0,0,1-1.48-.49l-15.14-19.8a1,1,0,0,1-.19-.77,1,1,0,0,1,.42-.66l7.12-4.91a1,1,0,0,1,1.28.12l8.68,8.85a1,1,0,0,1,.27.54L164.36,243s0,.07,0,.11c0,.33-.1.93-1,1.31A9,9,0,0,1,160.87,244.91Zm-.12-2a6.77,6.77,0,0,0,1.53-.2l-2.37-14.28-7.87-8-5.56,3.84Zm-.18,0Z" fill="#093f68"></path><polygon points="187.64 156.75 177.72 197.73 200.36 202.94 217.13 168.52 187.64 156.75" fill="#093f68"></polygon><path d="M200.36,203.94a.9.9,0,0,1-.23,0l-22.63-5.21a1,1,0,0,1-.63-.45,1,1,0,0,1-.12-.76l9.92-41a1,1,0,0,1,.51-.65,1,1,0,0,1,.83,0l29.49,11.77a1,1,0,0,1,.57.57,1,1,0,0,1,0,.79l-16.77,34.43A1,1,0,0,1,200.36,203.94Zm-21.43-7,20.88,4.81,15.95-32.74-27.42-11Z" fill="#093f68"></path><path d="M207.19,114.85h19.15A8.65,8.65,0,0,1,235,123.5V160a0,0,0,0,1,0,0H198.54a0,0,0,0,1,0,0V123.5a8.65,8.65,0,0,1,8.65-8.65Z" transform="translate(80.8 -80.25) rotate(25.63)" fill="#de2626"></path><path d="M223.42,166.69a.91.91,0,0,1-.43-.1l-32.86-15.77a1,1,0,0,1-.51-.57,1,1,0,0,1,0-.76l15.8-32.93A9.66,9.66,0,0,1,218.34,112l17.26,8.29a9.64,9.64,0,0,1,4.52,12.87l-15.8,32.93a1,1,0,0,1-.9.57ZM191.9,149.45l31,14.91,15.37-32a7.65,7.65,0,0,0-3.59-10.21l-17.26-8.28a7.65,7.65,0,0,0-10.2,3.58Z" fill="#093f68"></path><path d="M211.81,127.37s-5,14.91-10.71,15.64-4-9.92,0-16.42S211.81,127.37,211.81,127.37Z" fill="#093f68"></path><path d="M200.57,144a3.66,3.66,0,0,1-3.2-1.7c-2.2-3.42-.29-11.18,2.88-16.27a6,6,0,0,1,4.55-3.15c3.91-.36,7.6,3.61,7.75,3.78a1,1,0,0,1,.21,1c-.53,1.59-5.41,15.52-11.54,16.31A4.73,4.73,0,0,1,200.57,144Zm4.75-19.14H205a4,4,0,0,0-3,2.21c-3,4.87-4.44,11.74-2.9,14.13A1.74,1.74,0,0,0,201,142c4-.51,8.15-10.05,9.69-14.38C209.76,126.78,207.51,124.9,205.32,124.9Z" fill="#093f68"></path><path d="M224.19,115.34s2.92,15,0,24.52c0,0,8.62-10.91,10.13-21.35Z" fill="#ffc9b0"></path><path d="M224.22,140.86a1.11,1.11,0,0,1-.46-.11,1,1,0,0,1-.49-1.18c2.78-9.2,0-23.89-.06-24a1,1,0,0,1,1.27-1.15l10.18,3.16a1,1,0,0,1,.69,1.1c-1.53,10.59-10,21.38-10.34,21.83A1,1,0,0,1,224.22,140.86Zm1.23-24.07c.55,3.39,1.6,11.43.71,18.56,2.5-3.86,6-10.07,7.07-16.15Z" fill="#093f68"></path><path d="M231.21,61.38a35.5,35.5,0,0,1,4,.86,22,22,0,0,0-5.71-6.14,27.15,27.15,0,0,1,17.73,7.81c4.24,4.12,9.44,11.24,6.28,17-.83,1.51-1.79,2.84-1.93,4.57a34.07,34.07,0,0,1-1.17,5.92c-1.11,4.35-2.53,8.61-3.79,12.92L231,103c-6.89-.54-17,.36-23.1-3.4-1.81-1.12-2.92-3.07-3.94-4.93l-1.81-3.29c-.58-1.06-1.18-2.31-.73-3.43,1.72.85,3.9-.16,5-1.74A12.15,12.15,0,0,0,208,80.77c.49-4-.37-8,2.83-11.18A9.17,9.17,0,0,1,219,67.15a11.75,11.75,0,0,0-8.29-3A36.16,36.16,0,0,1,231.21,61.38Z" fill="#725858"></path><path d="M246.59,105.28h-.08L230.93,104c-1.65-.13-3.5-.18-5.45-.23-6.22-.16-13.27-.33-18.1-3.32-2.08-1.28-3.3-3.51-4.29-5.3l-1.81-3.28c-.5-.93-1.45-2.64-.77-4.3a1,1,0,0,1,.57-.56,1,1,0,0,1,.8,0c1.26.63,2.91-.24,3.71-1.41a11.47,11.47,0,0,0,1.42-5c.11-.94.15-1.92.19-2.86.12-3.07.24-6.25,2.93-8.91a10.08,10.08,0,0,1,5.46-2.77,10.68,10.68,0,0,0-4.85-1,1,1,0,0,1-1-.77,1,1,0,0,1,.56-1.14,37.32,37.32,0,0,1,21.08-2.86h0c.49.08,1,.16,1.46.26a21.53,21.53,0,0,0-3.94-3.75,1,1,0,0,1,.62-1.8,28.26,28.26,0,0,1,18.4,8.1c2.52,2.44,10.43,11,6.46,18.15-.15.28-.31.54-.46.81a7.87,7.87,0,0,0-1.35,3.36,34.35,34.35,0,0,1-1.15,5.93l-.05.16c-.74,2.87-1.61,5.74-2.46,8.52-.46,1.47-.91,3-1.34,4.43A1,1,0,0,1,246.59,105.28Zm-44.27-16a6.69,6.69,0,0,0,.72,1.67l1.8,3.28c.92,1.67,2,3.56,3.6,4.57,4.36,2.7,11.12,2.87,17.09,3,2,0,3.85.1,5.56.24l14.77,1.17c.36-1.23.74-2.45,1.11-3.68.85-2.75,1.72-5.6,2.45-8.43l0-.16a32.78,32.78,0,0,0,1.1-5.58,9.68,9.68,0,0,1,1.61-4.21c.14-.26.29-.51.44-.77,3.28-6-3.84-13.57-6.1-15.76a26.84,26.84,0,0,0-13.94-7.21A23.32,23.32,0,0,1,236,61.71a1,1,0,0,1-1.12,1.49,34.81,34.81,0,0,0-3.86-.84,35.51,35.51,0,0,0-16.32,1.3,12.62,12.62,0,0,1,4.92,2.75,1,1,0,0,1-.87,1.72,8.21,8.21,0,0,0-7.25,2.17c-2.12,2.11-2.22,4.64-2.33,7.56,0,1-.08,2-.21,3a13.12,13.12,0,0,1-1.75,5.92A5.52,5.52,0,0,1,202.32,89.27Z" fill="#093f68"></path><ellipse cx="250.53" cy="102.6" rx="5.87" ry="5.25" transform="translate(128.42 344.22) rotate(-85.46)" fill="#ffc9b0"></ellipse><path d="M250.45,109.46l-.46,0a5.89,5.89,0,0,1-4.28-2.4,7.35,7.35,0,0,1,.76-9.6,5.87,5.87,0,0,1,8.89.71,7.37,7.37,0,0,1-.77,9.6A6,6,0,0,1,250.45,109.46Zm.17-11.73a4,4,0,0,0-2.77,1.16,5.38,5.38,0,0,0-.55,6.94,4,4,0,0,0,2.85,1.62,3.93,3.93,0,0,0,3.06-1.15,5.2,5.2,0,0,0,1.56-3.37h0a5.23,5.23,0,0,0-1-3.57,4,4,0,0,0-2.85-1.61Z" fill="#093f68"></path><path d="M230.72,120.2c-11.49-.91-20.64-15.9-19.74-27.2l4,1.77,2.86-13.66s13.48,1,19.54,1.45c11.16.86,15.75-1.74,15.75-1.74l-1.62,20.44C250.61,112.56,242.2,121.11,230.72,120.2Z" fill="#ffc9b0"></path><path d="M232.4,121.27c-.58,0-1.17,0-1.76-.07h0c-12-1-21.59-16.61-20.66-28.28a1,1,0,0,1,.48-.78,1,1,0,0,1,.92-.06l2.87,1.27,2.62-12.45a1,1,0,0,1,1-.79s13.47,1,19.54,1.46c10.62.81,15.14-1.6,15.19-1.63a1,1,0,0,1,1.48,1l-1.62,20.44C251.57,113.14,243.23,121.27,232.4,121.27Zm-1.6-2.07c10.52.84,18.82-6.74,19.71-18L252,82.35c-2.25.76-6.95,1.81-14.7,1.21l-18.67-1.39L216,95a1,1,0,0,1-1.39.71l-2.66-1.18c-.18,12.43,10.07,24,18.89,24.7Z" fill="#093f68"></path><ellipse cx="227" cy="97.88" rx="1.9" ry="1.9" transform="translate(-6.42 16.47) rotate(-4.1)" fill="#093f68"></ellipse><circle cx="245.25" cy="96.58" r="1.9" fill="#093f68"></circle><path d="M236.68,102.81c-.59,0-1,0-1.12,0a1,1,0,0,1-.89-1.1,1,1,0,0,1,1.09-.89,9.15,9.15,0,0,0,2.33-.08,15.72,15.72,0,0,0-1.82-3.84,1,1,0,0,1,.33-1.38,1,1,0,0,1,1.37.33c1,1.58,2.54,4.45,2,5.81a1.39,1.39,0,0,1-.9.88A8.13,8.13,0,0,1,236.68,102.81Z" fill="#093f68"></path><path d="M221.8,94.12a2,2,0,0,1,0-4h9.07a2,2,0,0,1,0,4Z" fill="#093f68"></path><path d="M237.88,93.31a2,2,0,0,1-.64-3.9l8.58-2.92a2,2,0,0,1,1.29,3.79l-8.58,2.92A2.06,2.06,0,0,1,237.88,93.31Z" fill="#093f68"></path><path d="M215,94.77s-4.73-3.86-7.77.38-1.06,12,7.39,10.49" fill="#ffc9b0"></path><path d="M212.54,106.83a7.35,7.35,0,0,1-6.52-3.25,8.23,8.23,0,0,1,.38-9,5.31,5.31,0,0,1,3.69-2.36c2.84-.38,5.41,1.69,5.52,1.78a1,1,0,0,1,.14,1.41,1,1,0,0,1-1.4.14h0s-2-1.62-4-1.35A3.4,3.4,0,0,0,208,95.73a6.28,6.28,0,0,0-.31,6.78c1.24,1.95,3.62,2.71,6.71,2.14a1,1,0,0,1,.36,2A12.63,12.63,0,0,1,212.54,106.83Z" fill="#093f68"></path><path d="M235.34,111.92c-3.74,0-9.49-1.55-10.94-7.69a1,1,0,1,1,1.94-.46c1.64,6.92,9.76,6.13,10.1,6.09a1,1,0,0,1,.22,2C236.26,111.89,235.81,111.92,235.34,111.92Z" fill="#093f68"></path><path d="M190.56,149.92s-8.2,15-4.61,23.08,46.13,18,46.13,18L246,174.32Z" fill="#093f68"></path><path d="M232.08,192a.91.91,0,0,1-.23,0c-4.4-1-43.12-10.25-46.81-18.55s4.3-23.34,4.64-24A1,1,0,0,1,191,149l55.43,24.4a1,1,0,0,1,.57.68,1,1,0,0,1-.2.87l-13.92,16.67A1,1,0,0,1,232.08,192ZM191,151.22c-1.6,3.17-7,14.87-4.15,21.38,2.73,6.15,32.72,14.41,44.83,17.27l12.67-15.17Z" fill="#093f68"></path><path d="M245.77,184.31l-26,23.19-10.57,9.43c-1.13-.9-6.38-6.88-8.68-8.64l9.68-9.84,24-24.46c2.81-2.7,9.09-2.48,11.79.33A7.05,7.05,0,0,1,245.77,184.31Z" fill="#ffc9b0"></path><path d="M209.17,217.93a1,1,0,0,1-.62-.22,41.54,41.54,0,0,1-3-3,70.52,70.52,0,0,0-5.66-5.6,1,1,0,0,1-.39-.72,1,1,0,0,1,.28-.78l33.71-34.29a9.24,9.24,0,0,1,6.68-2.2,9.47,9.47,0,0,1,6.54,2.54,8.05,8.05,0,0,1-.25,11.4l0,0-36.6,32.62A1,1,0,0,1,209.17,217.93ZM202,208.22c1.45,1.29,3.41,3.36,5,5.09.83.87,1.63,1.71,2.18,2.26l35.92-32a6.07,6.07,0,0,0,.17-8.56,7.58,7.58,0,0,0-5.16-1.92,7.27,7.27,0,0,0-5.22,1.63Zm43.81-23.91h0Z" fill="#093f68"></path><path d="M219.74,207.5l-10.57,9.43c-1.13-.9-6.38-6.88-8.68-8.64l9.68-9.84C213.31,201.41,216.88,204.78,219.74,207.5Z" fill="#fff"></path><path d="M209.17,217.93a1,1,0,0,1-.62-.22,41.54,41.54,0,0,1-3-3,70.52,70.52,0,0,0-5.66-5.6,1,1,0,0,1-.39-.72,1,1,0,0,1,.28-.78l9.68-9.84a1,1,0,0,1,1.4,0l1.13,1.07,8.44,8a1.06,1.06,0,0,1,.31.75,1,1,0,0,1-.33.73l-10.57,9.42A1,1,0,0,1,209.17,217.93ZM202,208.22c1.45,1.29,3.41,3.36,5,5.09.83.87,1.63,1.71,2.18,2.26l9.08-8.09c-2.35-2.24-5.09-4.83-7.64-7.24l-.42-.39Z" fill="#093f68"></path><path d="M200.5,208.29,194,214l19.7,17.27a.51.51,0,0,0,.85-.48L210.2,216Z" fill="#de2626"></path><path d="M214.07,232.44a1.51,1.51,0,0,1-1-.39l-19.68-17.26a1,1,0,0,1,0-1.5l6.46-5.75a1,1,0,0,1,1.29,0l9.71,7.72a1,1,0,0,1,.33.5l4.38,14.82,0,.11a1.51,1.51,0,0,1-.76,1.59A1.54,1.54,0,0,1,214.07,232.44Zm.31-1.89h0ZM195.55,214l17.59,15.43-3.81-12.86-8.8-7Z" fill="#093f68"></path><path d="M206.35,184.39a1,1,0,0,1-.41-.08c-.43-.2-10.7-4.85-15.37-9.37-4.85-4.68-4.95-9.48-4.95-9.68a1,1,0,0,1,1-1h0a1,1,0,0,1,1,1h0s.12,4.19,4.34,8.26c4.42,4.28,14.7,8.94,14.8,9a1,1,0,0,1,.51,1.32A1,1,0,0,1,206.35,184.39Z" fill="#fff"></path><path d="M208.15,113.17c-7.51,2.59-21.18,14.44-27.3,12.87s-23-4.34-23-4.34l-6.27,9.66s21,9.36,29.62,9,26.58-8.12,29.47-11.46S215.66,110.58,208.15,113.17Z" fill="#ffc9b0"></path><path d="M180.79,141.41c-9,0-28.74-8.75-29.6-9.13a1,1,0,0,1-.55-.63,1,1,0,0,1,.12-.83l6.27-9.66a1,1,0,0,1,1-.45c.69.12,17,2.8,23.06,4.36,3.36.86,10-3.29,15.94-7,4-2.5,7.8-4.86,10.78-5.89h0c3-1,4.57.45,5.23,1.43,2.6,3.84.83,13.14-1.6,15.95-1.84,2.12-8.14,5.17-13,7.13-3.29,1.33-11.55,4.46-17.22,4.67Zm-27.71-10.49c4.38,1.87,20.92,8.76,28.1,8.48,8.28-.3,26-7.94,28.75-11.11,1.92-2.22,3.44-10.6,1.46-13.52-.39-.58-1.12-1.27-2.91-.66h0c-2.78,1-6.47,3.26-10.39,5.7-6.54,4.07-13.3,8.27-17.49,7.2-5.33-1.36-19.1-3.69-22.25-4.22Zm55.07-17.75h0Z" fill="#093f68"></path><path d="M166.58,128.52a18.71,18.71,0,0,1,.21,8.85,18.23,18.23,0,0,1-2,5.15,18.61,18.61,0,0,1-25.69,6.93A17.4,17.4,0,0,1,135.8,147a18.65,18.65,0,0,1-5.12-19,18.28,18.28,0,0,1,1.71-3.93,18.66,18.66,0,0,1,34.19,4.44Z" fill="#f56132"></path><path d="M148.52,153.05a19.43,19.43,0,0,1-9.93-2.74,19.22,19.22,0,0,1-3.48-2.6,19.67,19.67,0,0,1-5.38-20,18.67,18.67,0,0,1,1.8-4.14,19.61,19.61,0,0,1,26.84-7.23,19.76,19.76,0,0,1,4.67,3.73,19.52,19.52,0,0,1,4.5,8.18h0a19.6,19.6,0,0,1,.22,9.32,19,19,0,0,1-2.09,5.44,19.44,19.44,0,0,1-12,9.34A19.77,19.77,0,0,1,148.52,153.05Zm.06-37.34a17.78,17.78,0,0,0-16.94,12.59,17.67,17.67,0,0,0,4.84,17.95,17,17,0,0,0,3.12,2.33,17.65,17.65,0,0,0,26-19.8h0a17.6,17.6,0,0,0-4-7.34,17.84,17.84,0,0,0-4.2-3.36A17.52,17.52,0,0,0,148.58,115.71Z" fill="#093f68"></path><path d="M153.41,152.39a1,1,0,0,1-1-.74l-9.71-36a1,1,0,1,1,1.93-.52l9.71,36a1,1,0,0,1-.71,1.23A1.09,1.09,0,0,1,153.41,152.39Z" fill="#093f68"></path><path d="M130.54,139.23a1,1,0,0,1-.26-2l36-9.71a1,1,0,0,1,1.22.7,1,1,0,0,1-.7,1.23l-36,9.71A1.09,1.09,0,0,1,130.54,139.23Z" fill="#093f68"></path><path d="M139.1,150.45a1,1,0,0,1-.49-.14,18.68,18.68,0,0,1-3.5-2.6,19.67,19.67,0,0,1-5.38-20,18.67,18.67,0,0,1,1.8-4.14,1,1,0,0,1,1.05-.48c4.82.93,9.15,5.59,10.77,11.6h0c1.64,6.08.19,12.32-3.6,15.51A1,1,0,0,1,139.1,150.45Zm-6.2-25.22a17.21,17.21,0,0,0-1.26,3.07,17.67,17.67,0,0,0,4.84,17.95,16.87,16.87,0,0,0,2.5,1.95c2.81-2.83,3.8-7.93,2.44-13S136.7,126.32,132.9,125.23Z" fill="#093f68"></path><path d="M164.8,143.52h-.18c-4.88-.88-9.25-5.54-10.89-11.61s-.22-12.21,3.48-15.44a1,1,0,0,1,1.15-.11,19.54,19.54,0,0,1,9.18,11.91h0a19.6,19.6,0,0,1,.22,9.32,19,19,0,0,1-2.09,5.44A1,1,0,0,1,164.8,143.52ZM158,118.47c-2.74,2.85-3.68,7.92-2.34,12.91s4.77,9,8.62,10a17.09,17.09,0,0,0,1.53-4.23,17.57,17.57,0,0,0-.2-8.37h0a17.6,17.6,0,0,0-4-7.34A17.35,17.35,0,0,0,158,118.47Z" fill="#093f68"></path><path d="M207.25,147.26a.93.93,0,0,1,.55-.5l6-2.11.59-.23a4,4,0,0,0,.59-.28,2.82,2.82,0,0,0,.51-.38,1.52,1.52,0,0,0,.37-.5,1.46,1.46,0,0,0,.15-.69,1.71,1.71,0,0,0-.15-.63,1.83,1.83,0,0,0-.38-.54,2,2,0,0,0-.59-.39,1.87,1.87,0,0,0-1.38-.13,1.79,1.79,0,0,0-.62.34,1.35,1.35,0,0,1-1.75-.19c-.55-.57-.16-1.18.36-1.59a3.6,3.6,0,0,1,1.27-.63,4,4,0,0,1,1.44-.08,5,5,0,0,1,1.52.45,5.28,5.28,0,0,1,1.35.86,4,4,0,0,1,.89,1.13,3,3,0,0,1,.32,1.36,3.54,3.54,0,0,1-.36,1.56,3.73,3.73,0,0,1-1.35,1.63,8.09,8.09,0,0,1-1.94.91l-5,1.64,4.4,2a1,1,0,1,1-.79,1.73l-5.88-2.69a1,1,0,0,1-.47-1.27Z" fill="#093f68"></path><path d="M216.75,151.62a1,1,0,0,1,.55-.5l6-2.11.59-.22a4.62,4.62,0,0,0,.59-.29,2.42,2.42,0,0,0,.51-.38,1.52,1.52,0,0,0,.37-.5,1.44,1.44,0,0,0,.15-.69,1.71,1.71,0,0,0-.15-.63,1.92,1.92,0,0,0-.38-.53,1.87,1.87,0,0,0-.59-.4,1.92,1.92,0,0,0-1.38-.13,1.79,1.79,0,0,0-.62.34,1.51,1.51,0,0,1-1.89-.27c-.57-.53,0-1.13.5-1.51a3.6,3.6,0,0,1,1.27-.63,4.06,4.06,0,0,1,1.44-.08,5.26,5.26,0,0,1,1.52.45,5.56,5.56,0,0,1,1.35.86,3.8,3.8,0,0,1,.89,1.13,3,3,0,0,1,.32,1.36,3.54,3.54,0,0,1-.36,1.56,3.78,3.78,0,0,1-1.34,1.63,8.27,8.27,0,0,1-1.94.91l-5,1.64,4.4,2a1,1,0,0,1,.47,1.27,1,1,0,0,1-1.26.47l-5.88-2.7a1,1,0,0,1-.47-1.27Z" fill="#093f68"></path><path d="M286.52,244.75h-173a1,1,0,0,1,0-2h173a1,1,0,0,1,0,2Z" fill="#093f68"></path></g></svg>