<svg xmlns="http://www.w3.org/2000/svg" xmlns:xlink="http://www.w3.org/1999/xlink" viewBox="0 0 400 300" width="406" height="306" class="illustration styles_illustrationTablet__1DWOa"><defs><linearGradient id="linear-gradient" x1="261.08" y1="201.03" x2="216.61" y2="230.57" gradientUnits="userSpaceOnUse"><stop offset="0" stop-color="#00a99d"></stop><stop offset="1" stop-color="#fff"></stop></linearGradient><linearGradient id="linear-gradient-2" x1="138.27" y1="128.63" x2="93.71" y2="158.22" xlink:href="#linear-gradient"></linearGradient></defs><title>201-210</title><g style="isolation: isolate;"><g id="Layer_2" data-name="Layer 2"><path d="M40.89,184.9,201.6,277.52a4.56,4.56,0,0,0,4.53,0l157.2-89.25a4.56,4.56,0,0,0,0-7.92L199.91,86.84a4.56,4.56,0,0,0-4.56,0L40.87,177A4.56,4.56,0,0,0,40.89,184.9Z" fill="#de2626"></path><path d="M63.78,187.42,200,265.94a7.33,7.33,0,0,0,7.28,0l133-75.52a7.33,7.33,0,0,0,0-12.74L201.81,98.42a7.33,7.33,0,0,0-7.34,0L63.75,174.74A7.33,7.33,0,0,0,63.78,187.42Z" fill="#de2626" style="mix-blend-mode: multiply;"></path><polygon points="91.63 158.38 153.36 194.41 222.6 155.42 161.26 119.6 91.63 158.38" fill="#ffc881"></polygon><path d="M71.48,171.46l21.61,12.62,31.84,18.59c7.13,4.16,15.41,5.54,23.51,6.51a135.23,135.23,0,0,0,26.08.6,126.43,126.43,0,0,0,49.79-14.2,53.48,53.48,0,0,0,17.49-15.16c10-13.5,9.88-33.84-5.33-42.8l-36.94-21.75-15.76-9.28" fill="none" stroke="#662d91" stroke-miterlimit="10"></path><ellipse cx="189.17" cy="174.91" rx="33.43" ry="19.49" fill="none" stroke="#662d91" stroke-miterlimit="10"></ellipse><polyline points="167.67 189.83 104.28 152.32 150.68 125.65 213.92 161.81" fill="none" stroke="#662d91" stroke-miterlimit="10"></polyline><path d="M236.14,210.17l-42,18.39s-12.91,15.8,11.83,19.37L276,208.06A239.38,239.38,0,0,0,236.14,210.17Z" fill="url(#linear-gradient)" style="mix-blend-mode: multiply;"></path><path d="M257,119.85s-2-11-5.3-15.51-11.76-12.07-11.76-12.07S235.21,95,236,96.38s9.39,11.84,9.39,11.84,2.29,15.89,4.09,17.05S256.4,122.84,257,119.85Z" fill="#eac1af"></path><path d="M232.24,90.83c.3-.08.6-.14.9-.23a16.55,16.55,0,0,1-1.58-12.53,10.06,10.06,0,0,0-7.72,9.59v0C226.74,87.79,230.94,88.21,232.24,90.83Z" fill="#fb9328"></path><path d="M234.41,90.17c.65-.24,1.29-.52,1.91-.81-1.42-3.23,2.32-6.8,3.2-9.73a.59.59,0,0,1,.4-.41,10.88,10.88,0,0,0-5.56-1.52,11.14,11.14,0,0,0-1.34.09A15.42,15.42,0,0,0,234.41,90.17Z" fill="#fb9328"></path><path d="M238.27,89.84c1.37,1.22,4.08.86,6.28.26a9.19,9.19,0,0,0,0-5A25.2,25.2,0,0,1,238.27,89.84Z" fill="#fb9328"></path><path d="M237.38,87.84a3.53,3.53,0,0,0,.18.91,24.07,24.07,0,0,0,6.44-5,10.08,10.08,0,0,0-3.17-3.87.58.58,0,0,1,0,.14C240,82.59,237.21,85,237.38,87.84Z" fill="#fb9328"></path><path d="M230.83,91.19a3.68,3.68,0,0,0-.35-.41c-1.6-1.58-4.25-1.76-6.54-1.82a9.49,9.49,0,0,0,.8,2.73A25.68,25.68,0,0,0,230.83,91.19Z" fill="#fb9328"></path><path d="M237,90.47c-.62.29-1.25.57-1.9.82a17.16,17.16,0,0,0,5,4.67A10.15,10.15,0,0,0,244,91.61C241.48,92.21,238.65,92.32,237,90.47Z" fill="#fb9328"></path><path d="M233.85,91.74c-.41.13-.84.22-1.26.34.2,2.09-1.82,3.28-4,3.91a11,11,0,0,0,10.29.66A18.43,18.43,0,0,1,233.85,91.74Z" fill="#fb9328"></path><path d="M231.28,92.42a26.77,26.77,0,0,1-5.79.58,10.14,10.14,0,0,0,1.72,2C229.07,94.52,231.15,93.7,231.28,92.42Z" fill="#fb9328"></path><path d="M238.27,89.84a25.2,25.2,0,0,0,6.23-4.77,9.55,9.55,0,0,0-.5-1.37,24.07,24.07,0,0,1-6.44,5,3.53,3.53,0,0,1-.18-.91C237.21,85,240,82.59,240.82,80a.58.58,0,0,0,0-.14,10.54,10.54,0,0,0-.92-.61.59.59,0,0,0-.4.41c-.88,2.93-4.62,6.51-3.2,9.73-.63.29-1.26.57-1.91.81A15.42,15.42,0,0,1,233,77.8a11,11,0,0,0-1.46.28,16.55,16.55,0,0,0,1.58,12.53c-.29.09-.6.15-.9.23-1.3-2.62-5.49-3-8.39-3.15a9.48,9.48,0,0,0,.1,1.28c2.29.06,4.94.24,6.54,1.82a3.68,3.68,0,0,1,.35.41,25.68,25.68,0,0,1-6.09.5,9.77,9.77,0,0,0,.74,1.31,26.77,26.77,0,0,0,5.79-.58c-.12,1.28-2.21,2.1-4.07,2.54a10.48,10.48,0,0,0,1.38,1c2.18-.63,4.2-1.82,4-3.91.42-.11.85-.2,1.26-.34a18.43,18.43,0,0,0,5,4.91,10.68,10.68,0,0,0,1.3-.69,17.16,17.16,0,0,1-5-4.67c.64-.24,1.27-.52,1.9-.82,1.62,1.85,4.46,1.74,7,1.14a9.54,9.54,0,0,0,.53-1.5C242.35,90.7,239.64,91.07,238.27,89.84Z" fill="#641300"></path><path d="M242.46,81.31c.87,6-2.8,12.66-11,12.66A11.52,11.52,0,0,1,225,92.15a10.58,10.58,0,0,0,9.38,5.47,10.25,10.25,0,0,0,10.52-10A9.61,9.61,0,0,0,242.46,81.31Z" fill="#cc5f1f" opacity="0.3" style="mix-blend-mode: multiply;"></path><path d="M236.34,172.67a33.46,33.46,0,0,0,.79,11.73c1.59,5.71,6.67,24.51,7.46,24.66s1.75.6,3.81-1.8-.79-20-3-24.81l1.48-16.09" fill="#eac1af"></path><path d="M254.21,173.47c.5,1.1,14.76,26.07,15.92,26.39s4.48-1.41,4.48-3.14-1-3-1.82-6.13-5.47-17.28-13.6-19.48" fill="#eac1af"></path><path d="M239,154.24a208.15,208.15,0,0,0-4.6,20.36s.59,3.7,11.7,2.92l2.88-9.08s.41,7.13,1.44,7.71,3.09,2.34,10.9-4.29l-1-22.86Z" fill="#a03e24" stroke="#f2f2f2" stroke-miterlimit="10"></path><path d="M237.63,122.61s8.87-6.51,13.83-5.81,7,2.44,7.91,7,.92,25.25.92,25.25-4.23,8.71-21.33,5.23l-2.81-23.93" fill="#f45923" stroke="#f2f2f2" stroke-miterlimit="10"></path><path d="M240.83,125.42s-8-9.5-9.23-10.78c-1-1.06-1.19-10.28-1.22-13.42l0-.06A6.75,6.75,0,0,1,233,98a6.33,6.33,0,0,0,2.12-2,.56.56,0,0,0-.65-.8,4.81,4.81,0,0,0-2.3,1.14q1.22-2.52,2.38-5.06c.24-.53-.42-1.15-.91-.66a12.9,12.9,0,0,0-2.14,3.61l-.16.32-.23-.15c.25-.92.5-1.83.77-2.74.18-.52.36-1,.55-1.57s-.87-1-1.12-.29l0,.12a.52.52,0,0,0-.16.24c-.11.36-.21.72-.31,1.08-.3.86-.59,1.72-.87,2.58a6.3,6.3,0,0,0-.74-.23c.13-1.19.3-2.37.53-3.55.13-.69-1-1-1.12-.29-.29,1.48-.5,3-.65,4.46l-.32.13h0a29.38,29.38,0,0,0-.36-3.24c-.13-.69-1.24-.4-1.12.29a41.61,41.61,0,0,1,.3,4.55,13.91,13.91,0,0,0,.66,3c-.46,2.61-2.4,14.35-1,18.19,1.52,4.32,8.17,15.49,10.65,16.21S243.3,131.36,240.83,125.42Z" fill="#eac1af"></path><path d="M235.51,214.23a6.55,6.55,0,0,0,3.33,1.23c2.18,0,4.37,0,6.55-.08a12.8,12.8,0,0,0,5.59-1.13,1.78,1.78,0,0,0,.62-.48c.36-.49,0-1.64-.1-2.19a6.43,6.43,0,0,0-1.24-2.57" fill="#010005"></path><path d="M249.12,205.94s-1.05,1.35-3.9,1.2h-1.49l-1.1-3.39s-1.68.81-1.85,2.2a1.4,1.4,0,0,0,1.3,1.55s-1,2.21-2.76,2.21-4.49.25-4.75,2.13,1,2.37,1,2.37,6.91.08,9.16,0,4.61-4.54,6.34-4A15.18,15.18,0,0,0,249.12,205.94Z" fill="#f45923"></path><path d="M278.41,200.52s1.83.68,0,4.89c-1.08,2.49-4.46,4-7.05,4.5a34.5,34.5,0,0,1-4.39.46,8,8,0,0,0-2,.06L273.76,200Z" fill="#010005"></path><path d="M275.46,196.69a2.49,2.49,0,0,0-2.11-.72c-1.35.16-1.79,2.86-2.75,4,0,0-1.63-1.75-1.8-1.51s-1.18.45-1.18,1.54,1.6,1.49,1.6,1.49.08,3.27-1.18,3.75-4-.16-4.55,1.76a2.87,2.87,0,0,0,1.52,3.43c.67.32,5.65-1.28,8.09-5.19s5.06-4.23,5.31-4.71S275.46,196.69,275.46,196.69Z" fill="#f45923"></path><path d="M249.18,114.09h-6.33l.57,5.22,6.4-2.43A11.12,11.12,0,0,1,249.18,114.09Z" fill="#dd9f8a"></path><path d="M241.15,105.78c-.09.51-2.06,6.44,0,10.26s9.94-4.58,9.94-4.58" fill="#eac1af"></path><path d="M255.64,108.41a2.63,2.63,0,0,0,.28-2.28,2.75,2.75,0,0,0-2.67-1.73,3.36,3.36,0,0,0-.06-.65,2.33,2.33,0,0,0-1.73-1.84,2.1,2.1,0,0,0-1.54.25,1.89,1.89,0,0,0-3.66.23c-.72-1.09-2.2-1.85-3.4-.83a1.87,1.87,0,0,0-.59,2.13,2.28,2.28,0,0,0-2.64,1.58,2.56,2.56,0,0,0,1.08,2.59,1.89,1.89,0,0,0-.42,1.41,2.15,2.15,0,0,0,1.85,1.94,1.74,1.74,0,0,0-.17.47,2,2,0,0,0,.89,1.91,1.75,1.75,0,0,0-.08,2.55,2.53,2.53,0,0,0,2.67.53,2.86,2.86,0,0,0,1.81.51,3.32,3.32,0,0,0,2.1-1,3.27,3.27,0,0,0,2.2.72,2.84,2.84,0,0,0,2.66-2.3,1.71,1.71,0,0,0,1-1.79,2.49,2.49,0,0,0,1.45-1.3A2.46,2.46,0,0,0,255.64,108.41Z" fill="#060100"></path><path d="M129.14,125.5,73.89,157.74S56.35,170,81.09,173.56l70.09-39.87S149.81,122.52,129.14,125.5Z" fill="url(#linear-gradient-2)" style="mix-blend-mode: multiply;"></path><polyline points="95.32 141.27 116.62 153.57 153.51 132.27 131.57 119.6 95.32 141.27" fill="#2e1920"></polyline><polyline points="153.51 132.27 153.51 127.68 100.94 136.59 95.32 136.68 95.32 141.27" fill="#2e1920"></polyline><polyline points="95.32 136.68 116.62 148.98 153.51 127.68 131.57 115.02 95.32 136.68" fill="#412e32"></polyline><polygon points="137.44 47.95 125.78 131.45 122.14 134.21 134.13 48.46 137.44 47.95" fill="#412e32"></polygon><path d="M144.43,45.69l-7.37-3.93c-2.82-.76-5.16,1.19-6.12,2h0l11.8,6.52" fill="#412e32"></path><path d="M117.07,132.21l5.07,2,12-85.75,7.07,4.15V47.38l-7.62-4.1a2.14,2.14,0,0,0-3.13,1.56Z" fill="#2e1920"></path><polygon points="183.84 18.54 186.09 14.61 183.84 14.31 138.94 40.44 138.94 83.02 141.2 83.32 149.94 77.52 150.63 76.32 183.84 57.3 183.84 18.54" fill="#de2626"></polygon><polygon points="183.84 18.54 186.09 14.61 183.84 14.31 138.94 40.44 138.94 83.02 141.2 83.32 149.94 77.52 150.63 76.32 183.84 57.3 183.84 18.54" fill="#de2626" style="mix-blend-mode: multiply;"></polygon><polygon points="141.2 40.74 141.2 83.32 186.09 57.6 186.09 14.61 141.2 40.74" fill="#de2626"></polygon><polygon points="144.43 41.59 144.43 78.24 183.84 56.1 183.84 19.09 144.43 41.59" fill="#de2626" style="mix-blend-mode: multiply;"></polygon><polyline points="159.9 51.95 159.9 54.74 162.21 56.31 168.9 53.4 168.9 50.93" fill="#874639"></polyline><path d="M165.32,53.09l.1-.1a8.45,8.45,0,0,1,4.31-2.28l-3.87-2-6,3.29,4.35,2.41A6.57,6.57,0,0,1,165.32,53.09Z" fill="#641300"></path><polygon points="151.18 48.66 151.18 64.88 177.08 50.3 177.08 34.04 151.18 48.66" fill="none" stroke="#f2f2f2" stroke-miterlimit="10"></polygon><path d="M184,61.17c-.19,1.57-.42,3.13-.67,4.69q-.83.3-1.67.53l1-3.44a.5.5,0,0,0-1-.27l-1.2,4a23,23,0,0,1-4.38.49c.13-.6.26-1.2.39-1.8s-.84-.9-1-.27l-.05.24a.54.54,0,0,0-.62.61c.07.4.16.8.23,1.2h0l-1,0c-1-.06-2.09-.13-3.26-.25-.05-.29-.12-.58-.17-.87s.16-.83.26-1.24c.14-.63-.82-.89-1-.27l-.07.33a.53.53,0,0,0-.34.58c0,.19.07.38.1.58s-.09.48-.14.73a17.65,17.65,0,0,1-3.58-.86c-.1-.65-.19-1.3-.26-2s-1.07-.64-1,0,.14,1,.21,1.49a6.82,6.82,0,0,1-1.18-.75.51.51,0,0,0-.24-.11c-.12-.58-.24-1.15-.34-1.73s-1.08-.36-1,.27a96,96,0,0,0,2.87,11.51.51.51,0,0,0,1,0,9,9,0,0,0,.77.51c.29,1.08.59,2.16.92,3.23a.47.47,0,0,0,.27.31.54.54,0,0,0,.87-.36c.06-.74.14-1.49.22-2.23a14,14,0,0,0,3.12.51c.14.43.27.87.42,1.3l0,0,0,.06a.5.5,0,0,0,1,.27c.14-.54.27-1.09.4-1.64a27.07,27.07,0,0,0,3-.21c.09.42.18.84.27,1.25v0a.51.51,0,0,0,1,.08l.5-1.66a10.2,10.2,0,0,0,2.89-1.1l0,.11c-.14.63.82.89,1,.27A139,139,0,0,0,185,61.17C185.08,60.53,184.08,60.53,184,61.17Zm-7.75,11.51c-.44,0-.88,0-1.33,0l.48-2.06h.44Zm4-4.94L179.83,69a16.11,16.11,0,0,1-3.18.55c-.1-.48-.19-1-.29-1.45A24.19,24.19,0,0,0,180.22,67.73Zm-7.94.21c.88.1,1.76.16,2.64.18l-.34,1.51a24,24,0,0,1-3.22-.31c-.11-.5-.2-1-.29-1.51ZM171,72.29q-.7-.11-1.4-.25c.1-.66.21-1.31.32-2l.59.12C170.7,70.89,170.85,71.59,171,72.29Zm-7-5.37c-.08-.36-.16-.72-.24-1.07a9.06,9.06,0,0,0,1.29.68c0,.32.08.64.14,1-.37-.17-.72-.35-1.06-.53A.49.49,0,0,0,164.05,66.91Zm.86,3.35h0c-.19-.69-.35-1.39-.52-2.08q.53.26,1.1.5c.13.71.25,1.43.4,2.14A9.19,9.19,0,0,1,164.92,70.27Zm.85,2.7a.5.5,0,0,0-.14-.09c-.12-.41-.24-.83-.35-1.24.28.15.56.28.85.4.12.52.23,1,.35,1.55A7.92,7.92,0,0,1,165.77,73Zm2.52,1.67c-.19-.08-.38-.18-.57-.28-.16-.63-.31-1.27-.46-1.9.42.14.85.26,1.29.37C168.46,73.43,168.36,74,168.29,74.64Zm.4-2.82a15.72,15.72,0,0,1-1.7-.52c-.16-.73-.29-1.46-.43-2.2a25,25,0,0,0,2.44.75C168.89,70.51,168.78,71.16,168.68,71.82ZM166.33,68c-.06-.35-.11-.7-.17-1a20.33,20.33,0,0,0,3.23.69c-.08.42-.17.84-.24,1.26A23.64,23.64,0,0,1,166.33,68Zm2.9,7c.08-.65.17-1.3.26-1.95.61.12,1.22.22,1.82.31.19.71.38,1.42.59,2.12A12.38,12.38,0,0,1,169.24,75Zm4,.53H173c-.21-.68-.41-1.36-.6-2l1.13.12h.15C173.54,74.25,173.39,74.88,173.24,75.51Zm.68-2.89-.38,0-1.41-.16c-.18-.68-.34-1.37-.5-2.06a24.74,24.74,0,0,0,2.74.25C174.22,71.29,174.08,72,173.92,72.63Zm.36,2.87c.15-.6.28-1.21.42-1.82a16.58,16.58,0,0,0,1.77,0c.11.55.22,1.1.34,1.65C175.92,75.42,175.05,75.48,174.28,75.5Zm3.71-.38-.19,0c-.11-.53-.21-1.06-.32-1.59.35,0,.7-.1,1-.17Zm-.72-2.54-.42-2a17.52,17.52,0,0,0,2.64-.41l-.64,2.14A12.73,12.73,0,0,1,177.27,72.58Zm4.7.83a6.72,6.72,0,0,1-2.86,1.45l.53-1.76A13.52,13.52,0,0,0,182.26,72C182.17,72.46,182.08,72.94,182,73.41Zm.51-2.55a.45.45,0,0,0-.35.05,12.73,12.73,0,0,1-2.14,1l.64-2.11a12.13,12.13,0,0,0,2.21-1C182.72,69.53,182.62,70.2,182.49,70.86Zm.14-3a10.56,10.56,0,0,1-1.63.79l.34-1.13c.61-.15,1.22-.33,1.82-.53,0,.28-.09.55-.13.83A.45.45,0,0,0,182.63,67.84Z" fill="#fb9328"></path><path d="M185.46,58.59A3,3,0,0,0,183.76,57q.36-1,.75-1.93c.24-.6-.72-.86-1-.27s-.47,1.19-.69,1.78l-1-.4c-.55-.24-1.11-.45-1.68-.64l-.49-2.43a.5.5,0,0,0-1,0,18.06,18.06,0,0,1-.45,1.9,21.31,21.31,0,0,0-2.86-.47c-.41,0-.81,0-1.21-.06l-.59-2.14a.5.5,0,0,0-1,.13l-.22,2a20.49,20.49,0,0,0-3.12.43c-.3-.74-.58-1.48-.84-2.23-.15-.44-.85-.51-1,0-.21,1-.38,1.91-.53,2.87q-.83.28-1.64.63l-.43-1.46a.5.5,0,0,0-1,.27l.48,1.62a23.24,23.24,0,0,0-2.62,1.47c-.54.35,0,1.22.5.86a23,23,0,0,1,2.4-1.37l.82,2.75q-.56.23-1.12.5c-.58.28-.07,1.14.5.86.3-.14.6-.27.91-.4l.53,1.78a.5.5,0,0,0,1-.13c0-.74,0-1.49.09-2.23a18.8,18.8,0,0,1,2.87-.65,22.9,22.9,0,0,1,1.13,4.25c.09.6.93.38,1-.13l.47-4.34c.61,0,1.22,0,1.83.05l1.25,4.53a.5.5,0,0,0,1-.13,14,14,0,0,1,.7-4c.89.17,1.78.39,2.66.66l.48,2.39a.5.5,0,0,0,1,0c.16-.58.33-1.16.51-1.73l.89.34c.6.24.86-.73.27-1l-.86-.33q.45-1.4.95-2.78a2.09,2.09,0,0,1,1,1A.5.5,0,0,0,185.46,58.59ZM178,55.94c-.34,1.06-.72,2.12-1.07,3.19q-.74-.12-1.48-.19l-1-3.49A19.86,19.86,0,0,1,178,55.94Zm-5.69-.46-.37,3.39-1,.09c-.4-1-.83-2.08-1.25-3.12A19.36,19.36,0,0,1,172.3,55.47Zm-6.7,1.66q.59-.26,1.2-.48c-.15,1.1-.28,2.2-.36,3.31h0Zm1.87,2.5q.14-1.68.38-3.34l.83-.24c.41,1,.83,2,1.22,3A20.05,20.05,0,0,0,167.47,59.63Zm4.35.23-.14,1.31c-.13-.42-.27-.84-.42-1.26Zm1.11-1,.37-3.41h.13l.95,3.43C173.9,58.83,173.42,58.82,172.94,58.83Zm3.27,2.87L175.73,60l.89.12C176.46,60.62,176.32,61.16,176.2,61.69Zm1.69-2.4c.34-1,.72-2.08,1.06-3.12l.1,0,.26.07L180,59.8Q179,59.5,177.9,59.29Zm3.66,1-.45-.15-.71-3.53a21,21,0,0,1,2.16.78Q182,58.82,181.56,60.28Z" fill="#fb9328"></path><ellipse cx="173.61" cy="57.92" rx="12.22" ry="6.91" fill="none" stroke="#f15a24" stroke-miterlimit="10" stroke-width="2"></ellipse></g></g></svg>