<svg id="Layer_1" data-name="Layer 1" xmlns="http://www.w3.org/2000/svg" xmlns:xlink="http://www.w3.org/1999/xlink" viewBox="0 0 408.07 293.92" width="406" height="306" class="illustration styles_illustrationTablet__1DWOa"><defs><linearGradient id="linear-gradient" x1="241.86" y1="210.69" x2="262.98" y2="70.47" gradientTransform="matrix(1, 0, 0, -1, 0, 352)" gradientUnits="userSpaceOnUse"><stop offset="0.01"></stop><stop offset="0.08" stop-opacity="0.69"></stop><stop offset="0.21" stop-opacity="0.32"></stop><stop offset="1" stop-opacity="0"></stop></linearGradient><linearGradient id="linear-gradient-2" x1="161.07" y1="248.05" x2="193.73" y2="-6.48" xlink:href="#linear-gradient"></linearGradient><linearGradient id="linear-gradient-3" x1="78.38" y1="237.22" x2="111" y2="-17.02" xlink:href="#linear-gradient"></linearGradient><linearGradient id="linear-gradient-4" x1="218.27" y1="149.35" x2="214.2" y2="108.94" xlink:href="#linear-gradient"></linearGradient><linearGradient id="linear-gradient-5" x1="210.2" y1="128.79" x2="210.01" y2="80.92" xlink:href="#linear-gradient"></linearGradient><linearGradient id="linear-gradient-6" x1="219.34" y1="183.38" x2="213.63" y2="110.29" xlink:href="#linear-gradient"></linearGradient><linearGradient id="linear-gradient-7" x1="127.52" y1="181.96" x2="142.09" y2="110.83" xlink:href="#linear-gradient"></linearGradient><linearGradient id="linear-gradient-8" x1="102.04" y1="120.85" x2="97.25" y2="134.27" xlink:href="#linear-gradient"></linearGradient><linearGradient id="linear-gradient-9" x1="92.67" y1="155.92" x2="105.63" y2="141.37" xlink:href="#linear-gradient"></linearGradient><linearGradient id="linear-gradient-10" x1="216.24" y1="96.91" x2="179.45" y2="128.07" xlink:href="#linear-gradient"></linearGradient><linearGradient id="linear-gradient-11" x1="135.88" y1="130.16" x2="134.76" y2="179.72" xlink:href="#linear-gradient"></linearGradient><linearGradient id="linear-gradient-12" x1="235.71" y1="182.41" x2="292.4" y2="141.49" xlink:href="#linear-gradient"></linearGradient><linearGradient id="linear-gradient-13" x1="255.86" y1="142.28" x2="292.84" y2="134.58" xlink:href="#linear-gradient"></linearGradient></defs><title>6</title><path d="M398.82,225.29q-.22,1-.48,2.07a128,128,0,0,1-5.4,17.1,115.6,115.6,0,0,1-10.38,20.3c-15.79,24.48-41.17,42.08-69,50.81s-57.85,9-86.43,3.32c-14.94-2.95-29.69-7.5-44.91-7.89-11.52-.3-23,1.8-34.38,3.32-35.08,4.68-72.46,3.54-103.49-13.46C24.9,290.2,8,271.93,5.76,249.86v-.08a54.94,54.94,0,0,1,2.48-22.45c5.06-15.9,16.37-30,27.78-41.89A243.19,243.19,0,0,0,71,139c4.32-7.37,8.77-13.21,11.42-21.58,1-3.07,1.8-6.19,2.63-9.3a147.64,147.64,0,0,1,4.47-14.86A68.67,68.67,0,0,1,105,69.42c10.93-11,25.21-18,39.2-24.77,8.19-4,16.41-7.94,25.05-10.78a103.18,103.18,0,0,1,61.54-.74,93.47,93.47,0,0,1,16,6.54C263.34,48.27,277.1,61.28,290,75c12.12,12.92,26.56,23.14,41.07,33.24,6.37,4.43,12.76,8.84,19,13.44,23,17.08,45.14,39,50.32,67.24C402.55,200.93,401.5,213.37,398.82,225.29Z" transform="translate(6.52 -28.8)" fill="#de2626" opacity="0.18" style="isolation: isolate;"></path><path d="M398.82,225.29q-.22,1-.48,2.07a128,128,0,0,1-5.4,17.1c-78.08-18.36-160.19-22.19-238.51-5-14.34,3.15-28.56,7-43.1,9-16.58,2.33-33.39,2.31-50.13,2.18q-27.71-.22-55.41-.8c-27.7-.57,0,0,0-.08a54.94,54.94,0,0,1,2.48-22.45c5.06-15.9,16.37-30,27.78-41.89a243.19,243.19,0,0,0,35-46.41c4.32-7.37,8.77-13.21,11.42-21.58,1-3.07,1.8-6.19,2.63-9.3l.47.1c17.86,4,32.68,13.25,48,22.81,17.12,10.65,36.64,20.71,56.5,17.3,12.38-12.24,32.69-10.07,48.81-16.67,12.89-5.27,23.08-16.24,36.45-20.12,14.36-4.16,29.78.55,44.63-1.12a72.22,72.22,0,0,0,11-2.24c6.37,4.43,12.76,8.84,19,13.44,23,17.08,45.14,39,50.32,67.24C402.55,200.93,401.5,213.37,398.82,225.29Z" transform="translate(6.52 -28.8)" fill="#de2626" opacity="0.35" style="isolation: isolate;"></path><path d="M398.34,227.36a121.61,121.61,0,0,1-15.78,37.4c-15.79,24.48-41.17,42.08-69,50.81s-57.85,9-86.43,3.32c-14.94-2.95-29.69-7.5-44.91-7.89-11.52-.3-23,1.8-34.38,3.32-35.08,4.68-72.46,3.54-103.49-13.46-19.47-10.67-36.35-29-38.6-51.05a54.94,54.94,0,0,1,2.48-22.45Z" transform="translate(6.52 -28.8)" fill="#de2626" opacity="0.35" style="isolation: isolate;"></path><path d="M246.41,245.63c-7.78.2-15.82-2.16-23.18.38-1.31.45-2.69,1.18-3.14,2.5-.89,2.62,2.38,4.61,5,5.41a240.37,240.37,0,0,0,27.51,6.6,10.57,10.57,0,0,0,4.23.16c2-.47,3.53-2,5.3-3,9.41-5.38,22.08,4.73,31.75-.17,2-1,3.82-3.38,2.74-5.34a5.17,5.17,0,0,0-3-2c-7-2.57-14.23-7.93-21.68-8.08C263.33,241.91,255,245.41,246.41,245.63Z" transform="translate(6.52 -28.8)" fill="url(#linear-gradient)"></path><path d="M201.19,273.36c-4.67-2.48-9.08-7.26-8-12.43.48-2.21,1.94-4.38,1.3-6.54a7.15,7.15,0,0,0-1.86-2.71c-2.58-2.76-5.23-5.55-8.51-7.42-7.09-4-15.87-3.07-23.89-1.64-5.59,1-12.28,3.28-13.2,8.88s4.84,10,10.29,11.46c-.59,3.91-6.52,5.45-6.69,9.4-.09,2,1.58,3.82,3.49,4.55a14.78,14.78,0,0,0,6.06.51l7.06-.39a4.81,4.81,0,0,0,3.4-1.08c1-1,1-2.86,2.31-3.44a3.28,3.28,0,0,1,2.51.27A156.22,156.22,0,0,1,196,282.54c3.88,2.21,4.85,2.49,4.39,6.8-.22,2.11-1.24,3.88.34,5.82,5,6.23,17.64-3.08,16.93-9.56C216.86,278.48,206.34,276.1,201.19,273.36Z" transform="translate(6.52 -28.8)" fill="url(#linear-gradient-2)"></path><path d="M160,287.64a59,59,0,0,1-17.63-1.24,14.23,14.23,0,0,1-6.34-2.73c-4.42-3.85-3.41-10.92-5.74-16.3-2.77-6.4-9.66-9.28-16-11-3.35-.89-6.47-2.45-9.82-3.14-4.31-.89-8.77-.59-13.1-1.37C83.83,250.5,76.52,246,69,247.66c-2.89.63-5.79,2.16-8.66,1.42-2.15-.56-3.77-2.31-5.71-3.39-4.59-2.56-10.27-1.21-15.33.21a16.67,16.67,0,0,0-5.74,2.43,5.64,5.64,0,0,0-2.37,5.44c.68,3,4.21,4.21,7.23,4.46s6.39.14,8.68,2.14c-1,1.37-2.67,2-4.17,2.7s-3.05,2-3.08,3.65c0,2.38,2.79,3.6,5.1,4.19,7.69,1.93,15.47,3.88,23.4,3.94,2.45,0,5.2,0,7,1.66,1.12,1.08,2.42,11.34.8,11.08,7.34,1.15,16.28,1.7,20.7-4.27a22.54,22.54,0,0,1,2-2.66c2.06-2,5.46-2,8.12-.84s4.84,3.1,7.24,4.7c5.11,3.39,11.15,5,17.07,6.57,8.63,2.28,20.8,8.13,29.67,7.81C169.52,298.63,166.83,287.64,160,287.64Z" transform="translate(6.52 -28.8)" fill="url(#linear-gradient-3)"></path><path d="M180.89,229.45c-1.57.45-3.23.71-4.82,1.11-2.89.72-5.52,2.19-6.81,5a17.6,17.6,0,0,0-1.2,4.61,87.92,87.92,0,0,0-.31,25.25,23.55,23.55,0,0,1,.27,2.65c0,1.07,0,2.44.84,2.66a1.53,1.53,0,0,0,1.08-.26,13.14,13.14,0,0,0,2.28-1.56,3.79,3.79,0,0,0,.75-.8,5.13,5.13,0,0,0,.52-1.05,76.94,76.94,0,0,0,3.08-9.47,33.81,33.81,0,0,0,1.31-11,4.54,4.54,0,0,1,0-1.56c.46-1.61,2.44-3,4-3.48l3.56-1.07a1.81,1.81,0,0,0,1.44-2.53,28.91,28.91,0,0,0-3.14-9.7A12.31,12.31,0,0,1,180.89,229.45Z" transform="translate(6.52 -28.8)" fill="#cb883a"></path><path d="M233.37,226.59a55,55,0,0,1-7,12.81c-1.33,1.81-1.59,4-2.49,6.09a26,26,0,0,1-3.51,5.84,7.68,7.68,0,0,1-2.51,2.2,6.08,6.08,0,0,1-2.26.53,17,17,0,0,1-4.38-.39,50.36,50.36,0,0,1-7.13-1.92,8.79,8.79,0,0,1-2.34-1.1,6.31,6.31,0,0,1-2.29-4.55,19,19,0,0,1,.51-5.2c.33-1.74.09-.49.43-2.23l-.26.1c-2.51,1-4.71,1.75-8.24,3.11-.89.34-10.14,3.12-10.36,2.5a51.58,51.58,0,0,1-2.44-9.06,23.68,23.68,0,0,1-.12-7.79c.28-1.54.7-1.41,2.27-1.94,1.42-.48,2.85-1,4.27-1.42,2.86-.93,5.72-1.83,8.6-2.7a20.31,20.31,0,0,1,3.77-.83,8,8,0,0,1,4,.54c2.34,1,4.82.68,7.41.7a176.53,176.53,0,0,1,22.85,1.82,2.2,2.2,0,0,1,1,.3C233.94,224.55,233.71,225.72,233.37,226.59Z" transform="translate(6.52 -28.8)" fill="#de2626"></path><path d="M206.24,227a4.91,4.91,0,0,0,2.11.41,3.8,3.8,0,0,0,.77-.24,2.34,2.34,0,0,1,1.94.58,18.77,18.77,0,0,1,1.45,1.51,15.61,15.61,0,0,0,2.27,1.78,3.4,3.4,0,0,0,1,.52,2.63,2.63,0,0,0,1.52-.12c1.33-.44,2.53-1.34,3.93-1.37,2.75-.06,4.82,2.83,7.46.73a15.51,15.51,0,0,0,3.61-4.13,8.75,8.75,0,0,1-6.53,1.05,50.54,50.54,0,0,1-6.48-2,71.82,71.82,0,0,0-11.43-2.37c-1.4-.21-2.77-.62-4.18-.8a6.05,6.05,0,0,0-2.08,0c-.5.13-1.57.5-1.82.94a1.48,1.48,0,0,0,.66,1.82c.58.41,1.29.58,1.89,1a1.57,1.57,0,0,1,.8,1.78c.76.17,1.31-.75,2.05-1A1.92,1.92,0,0,1,206.24,227Z" transform="translate(6.52 -28.8)" fill="url(#linear-gradient-4)"></path><path d="M219.19,245.6a7.48,7.48,0,0,0-4.43-4.26,21.92,21.92,0,0,0-6.2-1.21,7.27,7.27,0,0,0-2.75.08,7,7,0,0,0-3.26,2.66c-1.06,1.34-2.12,2.94-1.82,4.62a4.42,4.42,0,0,0,2.44,3,17.12,17.12,0,0,0,3.77,1.22c2.52.64,6.52,3.25,9.14,2.64C219.37,253.58,220.07,248.21,219.19,245.6Z" transform="translate(6.52 -28.8)" fill="url(#linear-gradient-5)"></path><path d="M204.5,273.91a30.78,30.78,0,0,1,.17,7.79c-.2,1.33-.59,2.75,0,4,.86,1.91,3.67,2.21,5.42,1.06s2.63-3.23,3.23-5.24c1.7-5.8,1.78-11.89,1.69-17.89,0-3-.13-6.07-.07-9.1.05-2.82.83-5.54.68-8.37a6.09,6.09,0,0,0-.42-2.15,6,6,0,0,0-3-2.8,5.18,5.18,0,0,0-2.53-.65,6.42,6.42,0,0,0-3.62,2,7.83,7.83,0,0,0-2,2.25,7.92,7.92,0,0,0-.64,3.4c-.16,4.07.13,8.22.26,12.32Q203.84,267.22,204.5,273.91Z" transform="translate(6.52 -28.8)" fill="#cb883a"></path><path d="M204.23,280a1.2,1.2,0,0,1,1.06-.11,5.7,5.7,0,0,1,1.1.56,5.89,5.89,0,0,0,5.59,0,1.88,1.88,0,0,1,1.06-.38c.73.07,1,1,1.06,1.74l.77,8a7.07,7.07,0,0,1-.14,3c-.43,1.25-1.12,2.24-1.44,3.54a6.28,6.28,0,0,1-2.59,3.28,8.24,8.24,0,0,1-4.06,2,6.83,6.83,0,0,1-3.26-.73c-1.86-.82-3.71-2.11-4-4.26a7.51,7.51,0,0,1,1-4.68c1.46-2.72,4.24-4.63,3.36-8a8.44,8.44,0,0,1-.31-1.32,4.66,4.66,0,0,1,.38-1.84,1.85,1.85,0,0,1,.36-.66Z" transform="translate(6.52 -28.8)" fill="#1f1717"></path><path d="M193.66,176.19a7.44,7.44,0,0,0-3.59,3.35,10.28,10.28,0,0,0-1.47,3.21c-.21.94-.19,1.92-.31,2.87a13.15,13.15,0,0,1-2.41,5.87,35.67,35.67,0,0,1-6.1,6.24l-3.39,3-4.13,3.58a10.22,10.22,0,0,1-1.91,1.49,5,5,0,0,1-2.21.28,10.78,10.78,0,0,0-3.22.74,9.91,9.91,0,0,0-3.49,1.76.37.37,0,0,0-.17.29c0,.13.14.23.27.28a2.7,2.7,0,0,0,1.73.09,7,7,0,0,0,1.64-.66c.16-.08.39-.13.47,0s-.05.27-.16.36a13.72,13.72,0,0,0-2,1.73,1.86,1.86,0,0,0-.25.6,7.8,7.8,0,0,0-.75,2.46,6.7,6.7,0,0,0,.58,3.12.55.55,0,0,0,.26.32c.21.09.45-.12.5-.35a1.79,1.79,0,0,0-.07-.69,4.63,4.63,0,0,1,.41-2.29,14.48,14.48,0,0,0,.55,2.43,1.07,1.07,0,0,0,.42.67.36.36,0,0,0,.25.06.44.44,0,0,0,.34-.41,2.82,2.82,0,0,0-.09-.57,2.86,2.86,0,0,1,.32-2,9.23,9.23,0,0,0,.91,2.12c.09.15.21.31.38.31a.35.35,0,0,0,.32-.29,1.14,1.14,0,0,0,0-.45L167,214.4a.94.94,0,0,1,0-.41.33.33,0,0,1,.28-.26c.19,0,.3.2.38.37l.27.66a.52.52,0,0,0,.23.31.35.35,0,0,0,.44-.22,1.28,1.28,0,0,0,0-.55l-.09-.7a1.23,1.23,0,0,1,0-.54c.17-.53,1.35-.79,1.83-1a4,4,0,0,0,2.1-1.26,9.12,9.12,0,0,1,.6-1,3,3,0,0,1,1.21-.74,57.59,57.59,0,0,0,11.8-6.65,6.49,6.49,0,0,0,2.19-2.29,15.69,15.69,0,0,1,.77-1.85,6.13,6.13,0,0,1,1.57-1.39,20.39,20.39,0,0,0,4.26-4.95,23.53,23.53,0,0,0,2.79-4.87,23.39,23.39,0,0,0,1.06-5.17c.18-1.42,1.21-4.2-.17-5.37C197.46,175.59,194.91,175.77,193.66,176.19Z" transform="translate(6.52 -28.8)" fill="#cb883a"></path><path d="M233.13,227.06a10.21,10.21,0,0,1-1.32,1.22,8.81,8.81,0,0,1-1.36,1,4.45,4.45,0,0,1-2.82.49,5,5,0,0,1-1-.28c-1.07-.44-2-1.31-3.16-1.34a4.68,4.68,0,0,0-1.52.31,14.11,14.11,0,0,1-9.21.09,59.85,59.85,0,0,1-9.2-3.77l-.28-.13c-1.76-.83-3.51-1.67-5.2-2.63a3.55,3.55,0,0,1-1.78-1.7,3.94,3.94,0,0,1,.33-2.53,29.43,29.43,0,0,0,1.19-4.42,30.16,30.16,0,0,0,.44-8.74,7.19,7.19,0,0,0-.39-1.94c-.48-1.2-1.53-2.11-2-3.31-.63-1.51-.32-3.23-.44-4.86-.18-2.39-1.52-3.52-2.47-5.49-.69-1.45-.31-3.6,0-5.19a19.94,19.94,0,0,1,5.22-10.32,3,3,0,0,1,1.55-1,3.15,3.15,0,0,1,1.49.22l8.73,2.77c4.72,1.5,9.82,3.27,12.54,7.42a22.11,22.11,0,0,1,2.47,6.52l.06.24q2,7.71,4,15.42a16.82,16.82,0,0,0,1.09,3.23,28.44,28.44,0,0,0,2,3C234.71,215.32,236.75,222.88,233.13,227.06Z" transform="translate(6.52 -28.8)" fill="#fff"></path><path d="M233.13,227.06a10.21,10.21,0,0,1-1.32,1.22,8.81,8.81,0,0,1-1.36,1,4.45,4.45,0,0,1-2.82.49.68.68,0,0,1-.18-.29,1.15,1.15,0,0,1,.59-1.22,6,6,0,0,0,1.2-.81,3,3,0,0,0,.56-1.68c.2-1.7.4-3.4.59-5.1a7.92,7.92,0,0,0,0-2.83c-.58-2.49-3.25-3.86-4.54-6.07a12.09,12.09,0,0,1-1.22-4.28,17,17,0,0,1-4.73,4c-.82.41-1.7.68-2.49,1.13-1.89,1.09-3.15,3.16-5.19,3.94-1.34.53-2.86.41-4.22.89s-2.58,2.05-1.87,3.31c.34.59,1.07,1.06,1,1.74-.2,1.67-2.25,2.17-3.89,2.14a6.24,6.24,0,0,1-1.36-.16c-2.12-.55-4.36-1.4-5.51-3.4a7.52,7.52,0,0,1-.17-6.11,2.54,2.54,0,0,1,.64-1.14,2.6,2.6,0,0,1,.94-.47l.34-.09c7.71-2,15.54-5.47,20-12.07,2.5-3.7,3.86-8.26,6.81-11.52q2,7.71,4,15.42a16.82,16.82,0,0,0,1.09,3.23,28.44,28.44,0,0,0,2,3C234.71,215.32,236.75,222.88,233.13,227.06Z" transform="translate(6.52 -28.8)" fill="url(#linear-gradient-6)"></path><path d="M214.25,197.12c.05.35.11.71.18,1.06s.32,3.22.44,3.25a4.42,4.42,0,0,0-2.46.32c-3.63,1.26-6.76,3.33-10.28,4.82-2.13.91-4.21,1.89-6.26,3a3.19,3.19,0,0,0-1.18.87,2.77,2.77,0,0,0,0,2.62c.41,1,.84,1.83,2,2.07a7.59,7.59,0,0,0,3-.18l10.57-2.13a18.37,18.37,0,0,0,4.59-1.36,27.76,27.76,0,0,0,5.72-4.4c.7-.95,2.37-7.25,2.69-8.39l1.38-4.88a17.65,17.65,0,0,0,.68-3.13,12.48,12.48,0,0,0-.18-3.11,9.33,9.33,0,0,0-2-4.79,4.46,4.46,0,0,0-4.77-1.34,4.92,4.92,0,0,0-2.57,3.15,28.7,28.7,0,0,0-.75,4.12c-.37,2.18-1.14,4.37-1,6.61A15.32,15.32,0,0,0,214.25,197.12Z" transform="translate(6.52 -28.8)" fill="#cb883a"></path><path d="M193,212.36a10,10,0,0,1,1.11,1.55c.5,1.05.26,2.36.84,3.38,1,1.7,3.6,1.66,4.83,3.18a3.9,3.9,0,0,0,.67.79.7.7,0,0,0,.94,0,.8.8,0,0,0,0-.79c-.48-1.14-1.64-1.93-1.91-3.13a10.57,10.57,0,0,0,2.45.08c.4,0,.89-.16,1-.55s-.36-.77-.78-.93c-1.19-.46-2.64-.61-3.4-1.64l4-2.71a1.25,1.25,0,0,0,.72-1c0-.47-.67-.8-1.21-.8-1.68,0-3.15,1.22-4.83,1.31a7.81,7.81,0,0,1,1.67-1.91c.57-.63.93-1.66.35-2.29a.33.33,0,0,0-.14-.1.42.42,0,0,0-.3.12,12.46,12.46,0,0,1-3.53,2.13,1,1,0,0,1-.63.1.75.75,0,0,1-.46-.76,4.87,4.87,0,0,1,.2-.92,2.87,2.87,0,0,0-.37-2.16c-.33-.51-1.74,2.61-1.83,2.92A4.8,4.8,0,0,0,193,212.36Z" transform="translate(6.52 -28.8)" fill="#cb883a"></path><path d="M194.76,166a53.09,53.09,0,0,0-1.18,8.32,4.23,4.23,0,0,0,0,1.42,3.24,3.24,0,0,0,.88,1.39,6.12,6.12,0,0,0,4,1.71,1.17,1.17,0,0,1,.73.15,1,1,0,0,1,.33.47c.54,1.3.71,2.88,1.81,3.75a3.41,3.41,0,0,0,3.23.33,10.19,10.19,0,0,0,2.84-1.84c1.38-1.14,2.86-2.45,3.09-4.23a8.56,8.56,0,0,1,.14-1.24,4.28,4.28,0,0,1,1.13-1.62,14.28,14.28,0,0,0,4-8.18,9,9,0,0,0-3.47-8.12,12,12,0,0,0-5.15-1.78,15.24,15.24,0,0,0-4.86-.09C197.76,157.28,195.79,162,194.76,166Z" transform="translate(6.52 -28.8)" fill="#cb883a"></path><path d="M197.63,155a4.41,4.41,0,0,0,1.67,4.29,12.38,12.38,0,0,0,4.88,2l3.81.92a2.87,2.87,0,0,1,1.83,1,1.57,1.57,0,0,0,.3.38,1.5,1.5,0,0,0,.51.15,1.45,1.45,0,0,1,1,1.23,3.23,3.23,0,0,1-.27,1.62,9.63,9.63,0,0,1-1,1.94c.12.28.55.22.8,0a1,1,0,0,1,.82-.34.78.78,0,0,1,.47.53,3.21,3.21,0,0,1-1.07,3.57,2.5,2.5,0,0,0-1.26,1.58c-.06.23.16,2.21.37,2L214,172.8a3.43,3.43,0,0,0,1.44-2.14,1.07,1.07,0,0,1,.2-.8,1.46,1.46,0,0,1,.48-.21c.59-.28.51-1.16.87-1.71.22-.35.62-.55.9-.86.84-.91.42-2.43,1-3.55a2.8,2.8,0,0,0,.32-.73c.1-.58-.38-1.08-.56-1.63-.5-1.59.12-2.1-1.3-3.3a9.84,9.84,0,0,0-3.67-1.94,1.65,1.65,0,0,0-1.12-2.92,1.26,1.26,0,0,0,1-1.19,3.9,3.9,0,0,0-.33-1.65,2.31,2.31,0,0,0-.7-1.13,2,2,0,0,0-1-.31,11.06,11.06,0,0,0-2.93.08,1.63,1.63,0,0,0-3.07-.18,3.29,3.29,0,0,0-4-.24,8.25,8.25,0,0,0-2.71,3.34A10.27,10.27,0,0,0,197.63,155Z" transform="translate(6.52 -28.8)" fill="#8b2f0c"></path><path d="M174.88,265.54c-.1-.47-.29-.8-.6-.89a2.57,2.57,0,0,0-2.24.77,15,15,0,0,1-1.8,1.67.74.74,0,0,1-.67.16c-.27-.1-.37-.42-.58-.61a1,1,0,0,0-1.32.24,4.42,4.42,0,0,0-.62,1.34,9.82,9.82,0,0,1-.91,1.69,4.72,4.72,0,0,1-.65.89,6.27,6.27,0,0,1-1.59,1,20.42,20.42,0,0,0-2.28,1.62,9,9,0,0,0-2,1.58,3,3,0,0,0-.78,2.27,3.58,3.58,0,0,0,.56,1.37.47.47,0,0,0,.21.23.62.62,0,0,0,.33,0,37.57,37.57,0,0,0,11.68-2.7,5.85,5.85,0,0,0,1.75-1,2.28,2.28,0,0,0,.81-1.77,3.69,3.69,0,0,1-.13-1.19,4.21,4.21,0,0,1,.55-.94,3.5,3.5,0,0,0,.29-1.72A20.66,20.66,0,0,0,174.88,265.54Z" transform="translate(6.52 -28.8)" fill="#1f1717"></path><path d="M160.77,269.76l2.31,12.72a10.93,10.93,0,0,0,1.24,3.94,3.73,3.73,0,0,0,3.45,1.89c2.62-.36,3.23-3.83,3.17-6.47l-.34-16.45c-.14-7.08-.29-14.2-1.55-21.18-.44-2.41-1.07-8.81-3.33-9.86-1.59-.75-6.18.91-7.5,2.05-3.35,2.9-2,8.07-1.35,11.84C158.12,255.42,159.47,262.59,160.77,269.76Z" transform="translate(6.52 -28.8)" fill="#b15f27"></path><path d="M106.25,236.93c-2.13,4.35-3.44,9.09-5.74,13.35-1.82,3.37-4.22,6.38-6.08,9.72-3.6,6.47-5.27,14.27-10.73,19.27-.61.56-1.33,1.33-1,2.1s1.33.81,2.12.69c5.12-.76,9.62-3.83,13.4-7.36a55,55,0,0,0,16.21-28.85c.59-2.9,1-6,2.69-8.39,2.45-3.55,7.27-5.23,8.9-9.22a2.86,2.86,0,0,0,.27-1.47c-.41-3-8.54-4.42-10.8-3C111.58,226.15,108.19,232.93,106.25,236.93Z" transform="translate(6.52 -28.8)" fill="#b15f27"></path><path d="M168.53,234.54c-5.63,3.78-11.58,7.68-18.33,8.32a2.52,2.52,0,0,1-1.91-.35,2.71,2.71,0,0,1-.69-1.07l-5.31-12.21c-4.76,2.15-8.11,6.49-11.25,10.66a111.37,111.37,0,0,1-20.1-14.09l9.18-12.7a31.08,31.08,0,0,0,2.57-3.95c.79-1.53,1.32-3.19,2.19-4.68a23.82,23.82,0,0,1,5.47-5.86c1.45,2.2,4.52,2.37,7.12,2.79,2.36.37,4.66,1.12,7,1.38,4.7.51,9.1-1,13.47-2.47,2.43-.82,2.61-.45,3.33,2,.65,2.15,1.16,4.34,1.64,6.54.93,4.33,1.62,8.71,2.46,13.06C165.61,223,168.71,234.42,168.53,234.54Z" transform="translate(6.52 -28.8)" fill="#de2626"></path><path d="M127.93,200.28c-.47.38-1.08,1.49-.82,2.09a1.55,1.55,0,0,0,.9.67l4.33,1.72a6.78,6.78,0,0,1,1.59.8,18.33,18.33,0,0,1,1.84,2c1.29,1.3,3.22,1.87,4.39,3.28-.73-.88-7,1.61-8,1.92-2.77.84-5.46,2-8.16,3.12a30.56,30.56,0,0,0-8.9,4.89c-.93.81-2.94,2.59-3,3.93-.15,2.17,2.85.68,4,.21l10.26-4.06a61,61,0,0,1,9.11-3.07c2.51-.56,5.07-.81,7.62-1.12a11,11,0,0,0,4.39-1.18,11.38,11.38,0,0,0,2-1.66c2.4-2.29,4.79-4.61,7.07-7a19.67,19.67,0,0,0,2.84-3,19,19,0,0,0,1-3.61c-5.44,2.22-11.36,1.32-17,.44C139.57,200,131.33,197.53,127.93,200.28Z" transform="translate(6.52 -28.8)" fill="url(#linear-gradient-7)"></path><circle cx="101.06" cy="182.25" r="15.12" fill="#d0742d"></circle><path d="M87.52,197.66S78.68,215,96.87,225.14" transform="translate(6.52 -28.8)" fill="none" stroke="#fff" stroke-linecap="round" stroke-miterlimit="10"></path><path d="M79.42,208.65s3.83,7.32,10.16,0,13-9.51,13-9.51" transform="translate(6.52 -28.8)" fill="none" stroke="#fff" stroke-linecap="round" stroke-miterlimit="10"></path><path d="M107.74,206s-15.65,10.15-26.62,12" transform="translate(6.52 -28.8)" fill="none" stroke="#fff" stroke-linecap="round" stroke-miterlimit="10"></path><path d="M85.55,223.2a5.58,5.58,0,0,1,4.71-4.42c4.11-.63,14.32,1.46,18.3-2.61" transform="translate(6.52 -28.8)" fill="none" stroke="#fff" stroke-linecap="round" stroke-miterlimit="10"></path><path d="M100.25,219.16l-5,.14c-.6,0-1.35.16-1.48.74s.31.89.68,1.21l1.78,1.51a40.06,40.06,0,0,1-8.72,1.11c.86,1.37,2.56,1.95,4.15,2.27a25.27,25.27,0,0,0,4.24.49,11,11,0,0,0,4.54-.63,14,14,0,0,0,3.67-2.5,15.7,15.7,0,0,0,3.39-3.56c.31-.5,1.81-3.48,1-3.77-.49-.18-2.46,1.79-3,2.05A12.41,12.41,0,0,1,100.25,219.16Z" transform="translate(6.52 -28.8)" fill="url(#linear-gradient-8)"></path><path d="M93.67,202.68l.54,2a1.52,1.52,0,0,0,.28.62,1.12,1.12,0,0,0,1.57-.12,5.18,5.18,0,0,0,.82-1.56,6.56,6.56,0,0,1,2.43-2.86,1.82,1.82,0,0,1,1.49-.37c.34.1.65.38,1,.36.66,0,.84-.91.83-1.57,0-1-.21-2.23-1.16-2.54a2.11,2.11,0,0,0-1,0c-3.24.52-5.8,2.92-8.06,5.29-.34.36-1.94,1.72-1,2.2A6.25,6.25,0,0,0,93.67,202.68Z" transform="translate(6.52 -28.8)" fill="url(#linear-gradient-9)"></path><path d="M89.84,199.3a11.08,11.08,0,0,1,4.79-5.41,19.92,19.92,0,0,0,2.77-1.57c2.1-1.67,2.57-4.6,3.06-7.24a62.25,62.25,0,0,1,2.42-9,6.5,6.5,0,0,1,1.27-2.41A9.29,9.29,0,0,1,107,172c3.18-1.54,5.56-4.41,8.69-6.06,2.73-1.45,5.91-1.92,8.6-3.44,2.28-1.3,4.09-3.29,6.36-4.6s5.39-1.8,7.35-.05c1.06.94,2.58.3,4,.66.65,1.7-.34,3.55-1.38,5q-1.31,1.86-2.78,3.6a7.67,7.67,0,0,1-2,1.81,12,12,0,0,1-3.88.92c-6.81,1.19-11.76,7.52-18.49,9.09a3.68,3.68,0,0,0-2,.91,3.74,3.74,0,0,0-.57,1.35,13.58,13.58,0,0,1-1.93,4c-.79,1.12-1.74,2.11-2.55,3.21a15,15,0,0,0-2.78,10.6c.32.23.11,1-.26,1.12a1,1,0,0,1-1-.33,4.82,4.82,0,0,1-.6-1A1.7,1.7,0,0,0,101,198c-.72-.28-1.47.34-2,.94a12,12,0,0,0-2.59,4.84c-.14.6-.22,1.23-.4,1.82-.07.22-.2.47-.43.46a.46.46,0,0,1-.25-.1c-.86-.61-.76-1.9-.58-2.94l.55-3.06a3.87,3.87,0,0,0-2.33,1.6c-.4.6-.61,1.31-1,2A5.78,5.78,0,0,1,90.76,205a1.21,1.21,0,0,1-.58.33.88.88,0,0,1-.92-1,3.05,3.05,0,0,1,.62-1.44,11.94,11.94,0,0,0,1.22-2.61,7.68,7.68,0,0,1-2.35,2.19A9.94,9.94,0,0,1,89.84,199.3Z" transform="translate(6.52 -28.8)" fill="#b15f27"></path><path d="M144.69,156.87h-5.15s-6,11.3-7.35,12.51,1.62,7.48,1.08,10.45-3.51,4.86-3.24,8,.68,11.18.68,11.18,10.11,11.59,20.22,6.6,9.57-5.52,9.57-5.52V180.23l2.83-8.76s-3.65-5.9-5.53-7.2S144.69,156.87,144.69,156.87Z" transform="translate(6.52 -28.8)" fill="#de2626"></path><path d="M144.18,158.21c-1.28,2.74-2.58,5.64-2.33,8.64.1,1.1.4,2.16.59,3.25a11.82,11.82,0,0,0,.68,3.05,2.78,2.78,0,0,0,2.38,1.78,3.89,3.89,0,0,0,2.25-1.11,28.61,28.61,0,0,1,2.75-2.15c.76-.49,1.61-2.67,2.11-4.44.43-1.52-1.05-4.59-1.15-6.18A8.17,8.17,0,0,0,150,156.6a4.5,4.5,0,0,0-3.59-1.89C145.17,154.82,144.64,157.21,144.18,158.21Z" transform="translate(6.52 -28.8)" fill="#b15f27"></path><path d="M145.47,155.41a48.23,48.23,0,0,0,.05,5.89c.18,2.83.47,6.6,2.88,8.53a1.82,1.82,0,0,0,1.8.34,2.66,2.66,0,0,0,1.21-1.41,17.32,17.32,0,0,0,1.19-3.17.85.85,0,0,0,0-.5.68.68,0,0,0-.26-.32c-1.66-1.49-3.93-2.92-4.87-5C146.82,158.34,146.16,156.88,145.47,155.41Z" transform="translate(6.52 -28.8)" fill="#8e4717"></path><path d="M156,142a7.38,7.38,0,0,1,8.88,5.46q.08.31.12.63a10.19,10.19,0,0,1-.14,3.44,12.78,12.78,0,0,1-.68,2.34c-1,2.45-2.9,4.42-4.06,6.8a18.56,18.56,0,0,1-.86,1.73c-.42.67-1,1.23-1.4,1.9a14,14,0,0,1-1.21,2,3.69,3.69,0,0,1-3,1.09,7.45,7.45,0,0,1-3.1-1.07c-2.47-1.41-4.63-3.82-4.76-6.67-.07-1.43.35-3-.27-4.25-.3-.63-.84-1.13-1.21-1.74a4,4,0,0,1,.32-4.52,2,2,0,0,1,.8-.62,1.36,1.36,0,0,1,1.67.93,1.4,1.4,0,0,1,0,.5,9.44,9.44,0,0,1,1.36-3.88,7.78,7.78,0,0,1,3-2.42,22.82,22.82,0,0,1,3.65-1.34A2.84,2.84,0,0,1,156,142Z" transform="translate(6.52 -28.8)" fill="#b15f27"></path><path d="M149.7,147.9a17.57,17.57,0,0,0-1.68,3.94,3.16,3.16,0,0,1-1-1.49l-.52-1.27a1.6,1.6,0,0,1-.12-.37,1.15,1.15,0,0,1,0-.37,3.52,3.52,0,0,1,.54-1.35,27,27,0,0,0,1.37-3.23c.28-.77,1.42-1.51,1.51-2.33a10.65,10.65,0,0,1,0-1.13c.2-.89,1.26-1.33,1.62-2.17.28.29.76.19,1.15.08a13.62,13.62,0,0,1,7,0,7.27,7.27,0,0,0,2.44.45c.63,0,1.32-.27,1.83.1a1.9,1.9,0,0,1,.57,1.39c.68,0,1.56.13,1.69.8v.52a2.06,2.06,0,0,0,.54.85,6.14,6.14,0,0,1,.87,1.87l.2.59.2.6a1.56,1.56,0,0,1,.13.93.59.59,0,0,1-.68.46h0a1.13,1.13,0,0,1-.75,1.9.79.79,0,0,1,0,.73.38.38,0,0,1-.53.14.39.39,0,0,1-.1-.08.35.35,0,0,1-.42.3,1,1,0,0,1-.49-.34c0,.31-.46.32-.74.19a9.79,9.79,0,0,1-2.16-1.38,1.44,1.44,0,0,1-1.75.74,3.18,3.18,0,0,1-1.62-1.29c.07.37-.46.61-.8.44a1.52,1.52,0,0,1-.61-.93.92.92,0,0,1-1.14.26,2.59,2.59,0,0,1-.94-.86l-.46.78a4.64,4.64,0,0,1-1.45-1.11c.08.38-.37.69-.74.63a1.68,1.68,0,0,1-.91-.66.4.4,0,0,1-.63.49.22.22,0,0,1-.05-.08C150.73,147,150,147.41,149.7,147.9Z" transform="translate(6.52 -28.8)" fill="#3a2520"></path><path d="M163.33,171.47s4.18,5,3.1,9.7S146.67,211,146.67,211l-37,13.07a19.8,19.8,0,0,1-14.82,4.07A8.12,8.12,0,0,1,91.44,227c-.69-.45-2-1.71-.46-2.1a3,3,0,0,1,1.4.1,12.94,12.94,0,0,0,9.62-1.8l-3-.77c-.35-.09-.75-.22-.89-.55a.79.79,0,0,1,.29-.89,2,2,0,0,1,.94-.33c.82-.11,1.65-.09,2.47-.15,3.75-.29,6.83-2.76,10.42-3.69s7.32-1.21,10.74-2.67c5.53-2.38,9.67-7.72,15.56-9a5.12,5.12,0,0,0,1.54-.48,4.7,4.7,0,0,0,1.44-2c2.48-4.75,8.14-7.76,9.11-13a17.84,17.84,0,0,1,.5-2.72c.47-1.33,1.58-2.35,2.1-3.66.44-1.08.46-2.3.93-3.37a7.85,7.85,0,0,1,2.3-2.69C158.52,175.49,161,172.84,163.33,171.47Z" transform="translate(6.52 -28.8)" fill="#b15f27"></path><path d="M83.77,276.87c.57-.55,1.1-1.16,1.62-1.77l1.87-2.16c.49-.57,1.37-1.17,1.85-.26.34.64-.39,1.15.19,1.7,1.12,1.06,3.48-.78,4.8-.07a2.08,2.08,0,0,1,.85,1c.73,1.65,0,3.54-.75,5.18l-3.27,7.24a4,4,0,0,1-.9,1.42,3.24,3.24,0,0,1-1.42.62,7.38,7.38,0,0,1-3.87-.23,4.68,4.68,0,0,0-2.11-.47,3.61,3.61,0,0,0-1.63.85c-2,1.51-4.46,2.95-6.88,2.3a8,8,0,0,1-3.49-2.36c-3-3-2.25-7.23,2-8.64,4-1.33,7.81-1.17,11.05-4.22Z" transform="translate(6.52 -28.8)" fill="#3a2520"></path><path d="M162.67,282.42a2.07,2.07,0,0,1,2.73-1c.84.42,1.43,1.55,2.35,1.37.72-.15,1-1,1.55-1.49,1.11-1,3,0,3.57,1.33s.47,2.9.71,4.36c.36,2.13,1.53,4,2.42,5.95.45,1,.59,2.11,1,3.07s1.45,1.64,2,2.47a4.75,4.75,0,0,1,1,2.73,4.29,4.29,0,0,1-2.44,3.61,11.56,11.56,0,0,1-6.86.53,6.08,6.08,0,0,1-4-3.79,14.35,14.35,0,0,0-.79-2.4,8.82,8.82,0,0,0-1.57-1.77,13.32,13.32,0,0,1-2.13-2.82,2.68,2.68,0,0,1-.45-1.48,3.94,3.94,0,0,1,.51-1.4,5.9,5.9,0,0,0,.45-3.44c-.2-1.09-.7-2.11-.85-3.2A4.14,4.14,0,0,1,162.67,282.42Z" transform="translate(6.52 -28.8)" fill="#3a2520"></path><path d="M205.53,227.36c-1.17,3.52-2.35,8.6-5.14,11.23a1.24,1.24,0,0,1-.22.18c-2.51,1-4.71,1.75-8.24,3.11-.89.34-10.14,3.12-10.36,2.5a51.58,51.58,0,0,1-2.44-9.06,2.82,2.82,0,0,1,.14-.64c1.57,1.28,3.25,2.6,5.25,2.87a7.8,7.8,0,0,0,3.29-.33c3.17-.91,5.91-2.9,8.87-4.38C199.81,231.27,203.38,230.13,205.53,227.36Z" transform="translate(6.52 -28.8)" fill="url(#linear-gradient-10)"></path><path d="M200.08,181.92a2.35,2.35,0,0,0,.41.91,1.62,1.62,0,0,0,1.33.48,4.3,4.3,0,0,0,3-2.19,13.28,13.28,0,0,0,2.24-6.76,11.87,11.87,0,0,1-4.88,3.61c-.61.27-2.18.54-2.56,1.09S199.89,181.23,200.08,181.92Z" transform="translate(6.52 -28.8)" fill="#b7712c"></path><path d="M139.25,194.53A7.52,7.52,0,0,1,136,191c-.72-1.47-1.16-3.06-1.76-4.58-.06-.15-.14-.32-.29-.36a.49.49,0,0,0-.37.08,2.83,2.83,0,0,0-1.42,2.25,3,3,0,0,1-1.07-2.5,8.24,8.24,0,0,1,.68-2.72c.89-2.28,1.92-4.81,1-7.07,1.51,2.86,1.52,6.2,2.38,9.27C135.73,187.31,137.26,193.54,139.25,194.53Z" transform="translate(6.52 -28.8)" fill="url(#linear-gradient-11)"></path><path d="M285.24,228.13a32.87,32.87,0,0,1-.15,7.08l-1,11.2a21.61,21.61,0,0,0,0,6.22,1.34,1.34,0,0,0,.28.66,1.37,1.37,0,0,0,.66.3l2.1.54a.71.71,0,0,0,.94-.32.79.79,0,0,0,.06-.22q2.81-7.07,5.1-14.32c1.21-3.81,2.32-7.83,1.58-11.76a26.19,26.19,0,0,0-2.55-6.56,1.2,1.2,0,0,0-.5-.61,1.16,1.16,0,0,0-.61-.05c-1.45.15-7.21-.07-7.86,1.28C283,222.08,285.62,228.13,285.24,228.13Z" transform="translate(6.52 -28.8)" fill="#cb883a"></path><path d="M263.8,222s-2.24,3.92-2.51,5.69-5.78,25.93-5.78,25.93-3.09,2.15-3.72.88-1.39-20.1-.76-23.39a17.75,17.75,0,0,1,1.64-5.06l4.63-6.45Z" transform="translate(6.52 -28.8)" fill="#cb883a"></path><path d="M293.65,222.3a1.53,1.53,0,0,1-.32.94,1.85,1.85,0,0,1-1.49.36,66.86,66.86,0,0,0-8.84.13h0c-.6.05-1.2.1-1.8.17a1.2,1.2,0,0,1-1.43-.58,37.75,37.75,0,0,1-5-9.35c-.14-.38-.27-.76-.4-1.15a36,36,0,0,1-2.68,9.43,1.26,1.26,0,0,1-.3.46,1.13,1.13,0,0,1-.62.19c-4.37.51-9,.64-13-.87-.44-.16-.88-.34-1.31-.54a1.41,1.41,0,0,1-.73-.56,1.42,1.42,0,0,1-.13-.53c-.19-2.44,1.23-4.72,1.43-7.16a24.2,24.2,0,0,0-.41-4.57,19.69,19.69,0,0,1,5.11-15.44,14.27,14.27,0,0,1,1.1-1.1l2.38,1c2,.88,4.08,1.71,6.16,2.4A28.43,28.43,0,0,0,283,197.2a7.79,7.79,0,0,0,1.07-.12c.9-.13,2.6-.6,3.42,0a2.68,2.68,0,0,1,.77,1.79,8.45,8.45,0,0,0,.21,1c.76,2.42,2.14,4.58,2.93,7a29.49,29.49,0,0,1,1,4.75c.34,2.21.69,4.42,1,6.64A15.24,15.24,0,0,1,293.65,222.3Z" transform="translate(6.52 -28.8)" fill="#de2626"></path><path d="M305.46,164.39a33.55,33.55,0,0,0,8-5.44l6.81-5.66c2.44-2,5.09-4.46,5.16-7.63a3.85,3.85,0,0,1,1.64,2.92l3.41-3.76a2.37,2.37,0,0,1,.18,3,10,10,0,0,1,2.52-2.28,2.28,2.28,0,0,1-1.27,2.75l2.55-.8a6.53,6.53,0,0,1-3.12,4l2-.82-6.93,6.15-1.76,1.57-7,6.21c-2.71,2.41-5.47,4.85-8.77,6.36a32.09,32.09,0,0,1-5.47,1.79A113.22,113.22,0,0,1,291.86,175c-1.58.22.61-8.23,2.84-9.23C297.94,164.36,302,165.87,305.46,164.39Z" transform="translate(6.52 -28.8)" fill="#cb883a"></path><path d="M296.17,173.33c-.31.36-.66.68-.95,1.06a6.83,6.83,0,0,0-.66,1.22c-1.82,4-2.76,8.43-3.86,12.7a14.06,14.06,0,0,0-.64,4.37,13.82,13.82,0,0,1,.18,3.4,4.56,4.56,0,0,1-2.05,2.82,7,7,0,0,1-1.47.81c-4.23,1.77-9.07.83-13.47-.48-1.27-.38-2.53-.78-3.76-1.28a27.52,27.52,0,0,1-2.59-1.19,28.74,28.74,0,0,1-4.73-3.06,4.51,4.51,0,0,1-.51-.47,1.47,1.47,0,0,1-.35-.65,2.13,2.13,0,0,1,.19-1.11c1.33-3.54,3.77-6.64,5-10.13l.53-1.5,1.26-3.56,4.35-12.3a6.63,6.63,0,0,1,.48-1.38.79.79,0,0,1,.46-.38l4.37-1.34a10.82,10.82,0,0,1,2.93-.59,9.64,9.64,0,0,1,2.21.3c3,.63,6,1.26,9,2l.66.18a5.31,5.31,0,0,1,3.77,3.64C297.49,168.66,297.71,171.46,296.17,173.33Z" transform="translate(6.52 -28.8)" fill="#de2626"></path><path d="M282.93,197a.57.57,0,0,1,0,.26c-.1.77-1.26,1.1-2.14,1.1h-4.15a6,6,0,0,1-2.58-.36,5.68,5.68,0,0,1-1.6-1.28l-1.16-1.17-3.25-3.29a2.46,2.46,0,0,0-1.55-.91c-.88,0-1.36.89-1.36,1.8a2.17,2.17,0,0,0,.24,1c.57,1.09,1.68,1.8,2.34,2.84l-.82-.28-2.77-.94a1.28,1.28,0,0,0-.72-.1,1.22,1.22,0,0,0-.62.52,21.37,21.37,0,0,0-2.71,6.19,24.63,24.63,0,0,0-1.05,4.14c-.24,1.83-.07,3.69-.13,5.54-.12,3.3-.94,6.85.69,9.71a7.51,7.51,0,0,1-1.89.21c-.44-.16-.88-.34-1.31-.54a1.41,1.41,0,0,1-.73-.56,1.42,1.42,0,0,1-.13-.53c-.19-2.44,1.23-4.72,1.43-7.16a24.2,24.2,0,0,0-.41-4.57,19.69,19.69,0,0,1,5.11-15.44,1.47,1.47,0,0,1-.35-.65,2.13,2.13,0,0,1,.19-1.11c1.33-3.54,3.77-6.64,5-10.13l.53-1.5,1.26-3.56,4.35-12.3a6.63,6.63,0,0,1,.48-1.38,5.45,5.45,0,0,1,2.35-.56c2.32.06,2.88,1.8,2.48,3.71-.2,1-.39,1.2,0,2.18s1.36,1.8,1.29,3.1a3.51,3.51,0,0,1-.76,1.88c-1.18,1.6-3.05,2.52-4.68,3.68s-3.16,2.84-3.08,4.83a10.85,10.85,0,0,1,.08,1.4c-.12,1.17-1.18,2-1.5,3.17-.48,1.72.82,3.38,2,4.69a23.74,23.74,0,0,0,2.92,2.84,11.93,11.93,0,0,0,6.65,2.45C281.71,196,282.8,196.16,282.93,197Z" transform="translate(6.52 -28.8)" fill="url(#linear-gradient-12)"></path><path d="M287.78,149.44a9,9,0,0,1-1.19,2,10.8,10.8,0,0,0-1,2.5c-.31,0-.31,2-.28,2.26a6.93,6.93,0,0,0,.8,2,5,5,0,0,1,.44,1.1,1.84,1.84,0,0,1-.06,1.18,3,3,0,0,1-1,1.44,4.88,4.88,0,0,0-1.49,1.26,3.86,3.86,0,0,0-.52,2.2,7,7,0,0,0,.61,3.19,3.85,3.85,0,0,0,2.39,2.09,3.77,3.77,0,0,0,3.28-.87c1.7-1.43,2-3.63,2.45-5.67a6.07,6.07,0,0,1,1.24-2.9A11.4,11.4,0,0,1,295,160c1.83-1.39,2.74-3.64,3.57-5.78.69-1.77,1.37-3.8.53-5.51a5,5,0,0,0-3.77-2.41,7.43,7.43,0,0,0-4.24.54C290.05,147.34,288.12,148.27,287.78,149.44Z" transform="translate(6.52 -28.8)" fill="#cb883a"></path><path d="M288.5,144.19a1.6,1.6,0,0,0-.57.91.8.8,0,0,0,.49.88c-.26.4-.52,1-.17,1.31a.54.54,0,0,0-.09.77.76.76,0,0,0,.09.09l2.24-.68c0,.43.64.48,1.06.4l2.17-.43a2.88,2.88,0,0,0,2.34,1.7.43.43,0,0,1,.47.39v.07a18.79,18.79,0,0,0,1,2.38,4,4,0,0,1-.53,3.44,1.66,1.66,0,0,0,.7-.29,2.8,2.8,0,0,1-.7,2.28,4.57,4.57,0,0,0-1.11,2.16,33.16,33.16,0,0,0,2.82-2.74,14.79,14.79,0,0,0,2.31-3.14,20.22,20.22,0,0,0,1-2.58,5.1,5.1,0,0,0,.38-1.77,12.44,12.44,0,0,0-.33-1.7,1.75,1.75,0,0,0-.18-.63,1.45,1.45,0,0,0-.5-.38,21.15,21.15,0,0,0-2-.91,1.64,1.64,0,0,0-.92-1.64c-.58-.34-1.26-.48-1.87-.77-1-.48-1.93-1.4-3-1.16-.53.11-1.09-.16-1.54,0s-.52.68-.81.93C290.52,143.71,289.34,143.45,288.5,144.19Z" transform="translate(6.52 -28.8)" fill="#3a2520"></path><path d="M267.69,166.21a36.38,36.38,0,0,0-4.6,6.36c-1.83,3-3.73,6.57-2.34,9.77a10.75,10.75,0,0,0,2.45,3.19L273.61,196a5,5,0,0,0,1.68,1.27c1.34.51,2.84-.19,4.25,0s2.89,1.45,4.35,1c1.78-.48,2-3.19.77-4.55s-3.27-1.66-5.11-1.72a2.08,2.08,0,0,0,1.25-1c.2-.51-.32-1.23-.81-1a1.18,1.18,0,0,0-.33.3,2.91,2.91,0,0,1-3.67,0,8.6,8.6,0,0,1-2.29-3.24c-1.68-3.38-3.47-6.83-6.32-9.3q4.46-3.26,8.72-6.75a5.7,5.7,0,0,0,2-2.43c.65-2-1.51-5.22-3.51-5.85C272.16,162.05,269.23,164.61,267.69,166.21Z" transform="translate(6.52 -28.8)" fill="#cb883a"></path><path d="M252,252c.55.19.67,1,1.2,1.22l1.81-1.14a.51.51,0,0,1,.29-.1.46.46,0,0,1,.29.27,66.75,66.75,0,0,1,3.44,7c.3.71.55,1.62,0,2.17a1.88,1.88,0,0,1-1.22.43,13,13,0,0,1-3.24-.14,2.91,2.91,0,0,1-1-.31,5.64,5.64,0,0,1-1.07-1c-1.26-1.22-3.08-1.95-3-4C249.55,255.37,250.58,251.5,252,252Z" transform="translate(6.52 -28.8)" fill="#3a2520"></path><path d="M283.69,251.06a.58.58,0,0,1,.27-.22c.17-.05.34.07.48.17a4.1,4.1,0,0,0,1.86.81,2.34,2.34,0,0,0,1.9-.54c.26-.24.53-.59.89-.53s.46.37.63.62c.73,1.1,2.23,1.35,3.24,2.2a3.4,3.4,0,0,1,1.14,3.07.91.91,0,0,1-.28.58,1,1,0,0,1-.57.14,34.74,34.74,0,0,1-8.21-.48,3.58,3.58,0,0,1-1.81-.77C282.17,255.1,282.92,252.08,283.69,251.06Z" transform="translate(6.52 -28.8)" fill="#3a2520"></path><path d="M283,223.73c-.6.05-1.2.1-1.8.17a1.2,1.2,0,0,1-1.43-.58,37.75,37.75,0,0,1-5-9.35,4,4,0,0,0-.1-.59,3.57,3.57,0,0,1-.06-1.13c.16-.95,1.06-1.54,1.78-2.17a8.16,8.16,0,0,0,2.62-4.59c.3,2.25-.58,4.49-.67,6.76a15,15,0,0,0,2.33,7.81C281.09,220.85,282.54,222.38,283,223.73Z" transform="translate(6.52 -28.8)" fill="url(#linear-gradient-13)"></path></svg>